<?xml version="1.0" standalone="no"?>
 <!DOCTYPE svg PUBLIC "-//W3C//DTD SVG 1.1//EN" 
 "http://www.w3.org/Graphics/SVG/1.1/DTD/svg11.dtd"> 
<svg
  xmlns:svg="http://www.w3.org/2000/svg"
  xmlns="http://www.w3.org/2000/svg"
  xmlns:xlink="http://www.w3.org/1999/xlink"
  version="1.1"
  width="118.899940cm" height="84.099400cm" viewBox="0 0 1188999400 840994000">
<title>SVG Picture created as project-B_Courtyard.svg date 2022/02/16 18:46:07 </title>
  <desc>Picture generated by PCBNEW </desc>
<g style="fill:#000000; fill-opacity:1.000000;stroke:#000000; stroke-opacity:1.000000;
stroke-linecap:round; stroke-linejoin:round;"
 transform="translate(0 0) scale(1 1)">
</g>
<g style="fill:#000000; fill-opacity:0.0; 
stroke:#000000; stroke-width:0.000000; stroke-opacity:1; 
stroke-linecap:round; stroke-linejoin:round;">
</g>
<g style="fill:#26E9FF; fill-opacity:0.0; 
stroke:#26E9FF; stroke-width:0.000000; stroke-opacity:1; 
stroke-linecap:round; stroke-linejoin:round;">
</g>
<g style="fill:#26E9FF; fill-opacity:0.0; 
stroke:#26E9FF; stroke-width:50000.000000; stroke-opacity:1; 
stroke-linecap:round; stroke-linejoin:round;">
<path d="M105684000 75916000
L114484000 75916000
" />
<path d="M114484000 83116000
L105684000 83116000
" />
<path d="M105684000 83116000
L105684000 75916000
" />
<path d="M114484000 75916000
L114484000 83116000
" />
<path d="M104532000 83224000
L104532000 86984000
" />
<path d="M106492000 83224000
L104532000 83224000
" />
<path d="M104532000 86984000
L106492000 86984000
" />
<path d="M106492000 86984000
L106492000 83224000
" />
<path d="M69765500 75304000
L73465500 75304000
" />
<path d="M69765500 67464000
L69765500 75304000
" />
<path d="M73465500 67464000
L69765500 67464000
" />
<path d="M73465500 75304000
L73465500 67464000
" />
<path d="M102281000 72102000
L102281000 78802000
" />
<path d="M105441000 78802000
L105441000 72102000
" />
<path d="M102281000 78802000
L105441000 78802000
" />
<path d="M105441000 72102000
L102281000 72102000
" />
<path d="M106832000 121575000
L106832000 123535000
" />
<path d="M110592000 121575000
L106832000 121575000
" />
<path d="M110592000 123535000
L110592000 121575000
" />
<path d="M106832000 123535000
L110592000 123535000
" />
<path d="M47872000 120436000
L47872000 121896000
" />
<path d="M51172000 120436000
L47872000 120436000
" />
<path d="M47872000 121896000
L51172000 121896000
" />
<path d="M51172000 121896000
L51172000 120436000
" />
<path d="M163179462 96107086
L162147086 97139462
" />
<path d="M164480538 99472914
L165512914 98440538
" />
<path d="M162147086 97139462
L164480538 99472914
" />
<path d="M165512914 98440538
L163179462 96107086
" />
<path d="M159578709 97551538
L160611085 98583914
" />
<path d="M162944537 96250462
L161912161 95218086
" />
<path d="M160611085 98583914
L162944537 96250462
" />
<path d="M161912161 95218086
L159578709 97551538
" />
<path d="M221774000 114174000
L221774000 117474000
" />
<path d="M221774000 117474000
L223234000 117474000
" />
<path d="M223234000 117474000
L223234000 114174000
" />
<path d="M223234000 114174000
L221774000 114174000
" />
<path d="M127128000 108490000
L127128000 109950000
" />
<path d="M130428000 108490000
L127128000 108490000
" />
<path d="M130428000 109950000
L130428000 108490000
" />
<path d="M127128000 109950000
L130428000 109950000
" />
<path d="M118872000 89767000
L122632000 89767000
" />
<path d="M118872000 87807000
L118872000 89767000
" />
<path d="M122632000 89767000
L122632000 87807000
" />
<path d="M122632000 87807000
L118872000 87807000
" />
<path d="M83076800 108941600
L81616800 108941600
" />
<path d="M83076800 112241600
L83076800 108941600
" />
<path d="M81616800 108941600
L81616800 112241600
" />
<path d="M81616800 112241600
L83076800 112241600
" />
<path d="M226594400 123437400
L229894400 123437400
" />
<path d="M229894400 121977400
L226594400 121977400
" />
<path d="M226594400 121977400
L226594400 123437400
" />
<path d="M229894400 123437400
L229894400 121977400
" />
<path d="M79385520 123138880
L79385520 126898880
" />
<path d="M81345520 126898880
L81345520 123138880
" />
<path d="M81345520 123138880
L79385520 123138880
" />
<path d="M79385520 126898880
L81345520 126898880
" />
<path d="M99345914 107553462
L98313538 106521086
" />
<path d="M97012462 109886914
L99345914 107553462
" />
<path d="M98313538 106521086
L95980086 108854538
" />
<path d="M95980086 108854538
L97012462 109886914
" />
<path d="M105656000 75778000
L113496000 75778000
" />
<path d="M113496000 72078000
L105656000 72078000
" />
<path d="M105656000 72078000
L105656000 75778000
" />
<path d="M113496000 75778000
L113496000 72078000
" />
<path d="M142732462 92487914
L145065914 90154462
" />
<path d="M141700086 91455538
L142732462 92487914
" />
<path d="M144033538 89122086
L141700086 91455538
" />
<path d="M145065914 90154462
L144033538 89122086
" />
<path d="M110491000 98774000
L113791000 98774000
" />
<path d="M113791000 97314000
L110491000 97314000
" />
<path d="M110491000 97314000
L110491000 98774000
" />
<path d="M113791000 98774000
L113791000 97314000
" />
<path d="M155797086 92090538
L156829462 93122914
" />
<path d="M156829462 93122914
L159162914 90789462
" />
<path d="M158130538 89757086
L155797086 92090538
" />
<path d="M159162914 90789462
L158130538 89757086
" />
<path d="M120428000 124969000
L120428000 128269000
" />
<path d="M121888000 124969000
L120428000 124969000
" />
<path d="M120428000 128269000
L121888000 128269000
" />
<path d="M121888000 128269000
L121888000 124969000
" />
<path d="M112540000 128881000
L112540000 125881000
" />
<path d="M112540000 125881000
L110980000 125881000
" />
<path d="M110980000 125881000
L110980000 128881000
" />
<path d="M110980000 128881000
L112540000 128881000
" />
<path d="M91304800 118895600
L87104800 118895600
" />
<path d="M87104800 115495600
L91304800 115495600
" />
<path d="M91304800 115495600
L91304800 118895600
" />
<path d="M87104800 118895600
L87104800 115495600
" />
<path d="M114739000 72740000
L114739000 63940000
" />
<path d="M121939000 72740000
L114739000 72740000
" />
<path d="M114739000 63940000
L121939000 63940000
" />
<path d="M121939000 63940000
L121939000 72740000
" />
<path d="M210971400 121596400
L207671400 121596400
" />
<path d="M207671400 121596400
L207671400 123056400
" />
<path d="M207671400 123056400
L210971400 123056400
" />
<path d="M210971400 123056400
L210971400 121596400
" />
<path d="M96107086 97901462
L98440538 100234914
" />
<path d="M99472914 99202538
L97139462 96869086
" />
<path d="M98440538 100234914
L99472914 99202538
" />
<path d="M97139462 96869086
L96107086 97901462
" />
<path d="M110907000 125705000
L112867000 125705000
" />
<path d="M112867000 121945000
L110907000 121945000
" />
<path d="M110907000 121945000
L110907000 125705000
" />
<path d="M112867000 125705000
L112867000 121945000
" />
<path d="M130428000 106966000
L127128000 106966000
" />
<path d="M127128000 108426000
L130428000 108426000
" />
<path d="M130428000 108426000
L130428000 106966000
" />
<path d="M127128000 106966000
L127128000 108426000
" />
<path d="M47922800 116054000
L51222800 116054000
" />
<path d="M47922800 114594000
L47922800 116054000
" />
<path d="M51222800 116054000
L51222800 114594000
" />
<path d="M51222800 114594000
L47922800 114594000
" />
<path d="M110618000 114205000
L110618000 115665000
" />
<path d="M113918000 115665000
L113918000 114205000
" />
<path d="M113918000 114205000
L110618000 114205000
" />
<path d="M110618000 115665000
L113918000 115665000
" />
<path d="M44046000 117786000
L44046000 114386000
" />
<path d="M47886000 114386000
L47886000 117786000
" />
<path d="M47886000 117786000
L44046000 117786000
" />
<path d="M44046000 114386000
L47886000 114386000
" />
<path d="M231649000 120745000
L234949000 120745000
" />
<path d="M231649000 119285000
L231649000 120745000
" />
<path d="M234949000 119285000
L231649000 119285000
" />
<path d="M234949000 120745000
L234949000 119285000
" />
<path d="M113920000 115665000
L117220000 115665000
" />
<path d="M117220000 115665000
L117220000 114205000
" />
<path d="M113920000 114205000
L113920000 115665000
" />
<path d="M117220000 114205000
L113920000 114205000
" />
<path d="M139372810 94487000
L140832810 94487000
" />
<path d="M140832810 91187000
L139372810 91187000
" />
<path d="M140832810 94487000
L140832810 91187000
" />
<path d="M139372810 91187000
L139372810 94487000
" />
<path d="M187578000 125952000
L187578000 124492000
" />
<path d="M187578000 124492000
L184278000 124492000
" />
<path d="M184278000 125952000
L187578000 125952000
" />
<path d="M184278000 124492000
L184278000 125952000
" />
<path d="M140832810 87758000
L139372810 87758000
" />
<path d="M139372810 91058000
L140832810 91058000
" />
<path d="M140832810 91058000
L140832810 87758000
" />
<path d="M139372810 87758000
L139372810 91058000
" />
<path d="M103092086 101742538
L104124462 102774914
" />
<path d="M105425538 99409086
L103092086 101742538
" />
<path d="M104124462 102774914
L106457914 100441462
" />
<path d="M106457914 100441462
L105425538 99409086
" />
<path d="M224758000 117474000
L224758000 114174000
" />
<path d="M223298000 117474000
L224758000 117474000
" />
<path d="M224758000 114174000
L223298000 114174000
" />
<path d="M223298000 114174000
L223298000 117474000
" />
<path d="M106838914 92217538
L104505462 89884086
" />
<path d="M103473086 90916462
L105806538 93249914
" />
<path d="M104505462 89884086
L103473086 90916462
" />
<path d="M105806538 93249914
L106838914 92217538
" />
<path d="M126213000 109150000
L123063000 109150000
" />
<path d="M128213000 114300000
L128213000 117450000
" />
<path d="M119313000 118050000
L119913000 118050000
" />
<path d="M126813000 118050000
L126213000 118050000
" />
<path d="M126813000 117450000
L126813000 118050000
" />
<path d="M128213000 114300000
L128213000 111150000
" />
<path d="M117913000 117450000
L119313000 117450000
" />
<path d="M128213000 117450000
L126813000 117450000
" />
<path d="M117913000 114300000
L117913000 117450000
" />
<path d="M119313000 110550000
L119913000 110550000
" />
<path d="M119913000 109150000
L123063000 109150000
" />
<path d="M126213000 118050000
L126213000 119450000
" />
<path d="M119313000 111150000
L119313000 110550000
" />
<path d="M119313000 117450000
L119313000 118050000
" />
<path d="M126213000 119450000
L123063000 119450000
" />
<path d="M117913000 111150000
L119313000 111150000
" />
<path d="M126813000 110550000
L126213000 110550000
" />
<path d="M119913000 110550000
L119913000 109150000
" />
<path d="M126813000 111150000
L126813000 110550000
" />
<path d="M126213000 110550000
L126213000 109150000
" />
<path d="M117913000 114300000
L117913000 111150000
" />
<path d="M119913000 119450000
L123063000 119450000
" />
<path d="M128213000 111150000
L126813000 111150000
" />
<path d="M119913000 118050000
L119913000 119450000
" />
<path d="M112013000 129191000
L108713000 129191000
" />
<path d="M108713000 130651000
L112013000 130651000
" />
<path d="M108713000 129191000
L108713000 130651000
" />
<path d="M112013000 130651000
L112013000 129191000
" />
<path d="M71044800 115385600
L74344800 115385600
" />
<path d="M71044800 113925600
L71044800 115385600
" />
<path d="M74344800 113925600
L71044800 113925600
" />
<path d="M74344800 115385600
L74344800 113925600
" />
<path d="M159106996 95132675
L156448275 97791396
" />
<path d="M157834204 99177325
L160492925 96518604
" />
<path d="M156448275 97791396
L157834204 99177325
" />
<path d="M160492925 96518604
L159106996 95132675
" />
<path d="M94370780 79206864
L78305314 95272330
" />
<path d="M103930864 88766948
L94370780 79206864
" />
<path d="M103930864 88766948
L87865398 104832414
" />
<path d="M78305314 95272330
L87865398 104832414
" />
<path d="M132516000 112334000
L132516000 114234000
" />
<path d="M136216000 112334000
L132516000 112334000
" />
<path d="M136216000 114234000
L136216000 112334000
" />
<path d="M132516000 114234000
L136216000 114234000
" />
<path d="M155407062 96297914
L157740514 93964462
" />
<path d="M156708138 92932086
L154374686 95265538
" />
<path d="M154374686 95265538
L155407062 96297914
" />
<path d="M157740514 93964462
L156708138 92932086
" />
<path d="M98494964 101708579
L100729421 103943036
" />
<path d="M100729421 103943036
L105467036 99205421
" />
<path d="M105467036 99205421
L103232579 96970964
" />
<path d="M103232579 96970964
L98494964 101708579
" />
<path d="M84956400 124179600
L84956400 120879600
" />
<path d="M83496400 120879600
L83496400 124179600
" />
<path d="M84956400 120879600
L83496400 120879600
" />
<path d="M83496400 124179600
L84956400 124179600
" />
<path d="M114601000 71752000
L114601000 63912000
" />
<path d="M110901000 63912000
L110901000 71752000
" />
<path d="M110901000 71752000
L114601000 71752000
" />
<path d="M114601000 63912000
L110901000 63912000
" />
<path d="M74688500 74468000
L74688500 76428000
" />
<path d="M78448500 74468000
L74688500 74468000
" />
<path d="M74688500 76428000
L78448500 76428000
" />
<path d="M78448500 76428000
L78448500 74468000
" />
<path d="M83474500 87569000
L83474500 84409000
" />
<path d="M76774500 84409000
L76774500 87569000
" />
<path d="M76774500 87569000
L83474500 87569000
" />
<path d="M83474500 84409000
L76774500 84409000
" />
<path d="M91423000 78177000
L91423000 74477000
" />
<path d="M83583000 74477000
L83583000 78177000
" />
<path d="M91423000 74477000
L83583000 74477000
" />
<path d="M83583000 78177000
L91423000 78177000
" />
<path d="M95903421 108769036
L100641036 104031421
" />
<path d="M98406579 101796964
L93668964 106534579
" />
<path d="M100641036 104031421
L98406579 101796964
" />
<path d="M93668964 106534579
L95903421 108769036
" />
<path d="M127158000 92391000
L127158000 85691000
" />
<path d="M127158000 85691000
L123998000 85691000
" />
<path d="M123998000 85691000
L123998000 92391000
" />
<path d="M123998000 92391000
L127158000 92391000
" />
<path d="M114673000 76650000
L114673000 80350000
" />
<path d="M114673000 80350000
L122513000 80350000
" />
<path d="M122513000 80350000
L122513000 76650000
" />
<path d="M122513000 76650000
L114673000 76650000
" />
<path d="M106060538 93948086
L103727086 96281538
" />
<path d="M107092914 94980462
L106060538 93948086
" />
<path d="M104759462 97313914
L107092914 94980462
" />
<path d="M103727086 96281538
L104759462 97313914
" />
<path d="M114673000 76540000
L122513000 76540000
" />
<path d="M114673000 72840000
L114673000 76540000
" />
<path d="M122513000 72840000
L114673000 72840000
" />
<path d="M122513000 76540000
L122513000 72840000
" />
<path d="M110719000 127163000
L106959000 127163000
" />
<path d="M110719000 129123000
L110719000 127163000
" />
<path d="M106959000 129123000
L110719000 129123000
" />
<path d="M106959000 127163000
L106959000 129123000
" />
<path d="M120428000 121667000
L120428000 124967000
" />
<path d="M120428000 124967000
L121888000 124967000
" />
<path d="M121888000 121667000
L120428000 121667000
" />
<path d="M121888000 124967000
L121888000 121667000
" />
<path d="M69774800 123005600
L73074800 123005600
" />
<path d="M73074800 121545600
L69774800 121545600
" />
<path d="M73074800 123005600
L73074800 121545600
" />
<path d="M69774800 121545600
L69774800 123005600
" />
<path d="M155590538 91890686
L153257086 94224138
" />
<path d="M153257086 94224138
L154289462 95256514
" />
<path d="M156622914 92923062
L155590538 91890686
" />
<path d="M154289462 95256514
L156622914 92923062
" />
<path d="M117824000 105030000
L116364000 105030000
" />
<path d="M117824000 108330000
L117824000 105030000
" />
<path d="M116364000 108330000
L117824000 108330000
" />
<path d="M116364000 105030000
L116364000 108330000
" />
<path d="M214115400 130961400
L214115400 127661400
" />
<path d="M214115400 127661400
L212655400 127661400
" />
<path d="M212655400 130961400
L214115400 130961400
" />
<path d="M212655400 127661400
L212655400 130961400
" />
<path d="M117474000 112808000
L114174000 112808000
" />
<path d="M117474000 114268000
L117474000 112808000
" />
<path d="M114174000 114268000
L117474000 114268000
" />
<path d="M114174000 112808000
L114174000 114268000
" />
<path d="M175386000 117888000
L172086000 117888000
" />
<path d="M172086000 117888000
L172086000 119348000
" />
<path d="M172086000 119348000
L175386000 119348000
" />
<path d="M175386000 119348000
L175386000 117888000
" />
<path d="M53512000 74984000
L53512000 67784000
" />
<path d="M53512000 67784000
L62312000 67784000
" />
<path d="M62312000 67784000
L62312000 74984000
" />
<path d="M62312000 74984000
L53512000 74984000
" />
<path d="M220211400 130961400
L220211400 127661400
" />
<path d="M218751400 127661400
L218751400 130961400
" />
<path d="M220211400 127661400
L218751400 127661400
" />
<path d="M218751400 130961400
L220211400 130961400
" />
<path d="M117888000 105030000
L117888000 108330000
" />
<path d="M119348000 108330000
L119348000 105030000
" />
<path d="M117888000 108330000
L119348000 108330000
" />
<path d="M119348000 105030000
L117888000 105030000
" />
<path d="M110775000 63974000
L107615000 63974000
" />
<path d="M110775000 70674000
L110775000 63974000
" />
<path d="M107615000 70674000
L110775000 70674000
" />
<path d="M107615000 63974000
L107615000 70674000
" />
<path d="M109108538 87344086
L106775086 89677538
" />
<path d="M106775086 89677538
L107807462 90709914
" />
<path d="M107807462 90709914
L110140914 88376462
" />
<path d="M110140914 88376462
L109108538 87344086
" />
<path d="M158146914 89773462
L157114538 88741086
" />
<path d="M155813462 92106914
L158146914 89773462
" />
<path d="M157114538 88741086
L154781086 91074538
" />
<path d="M154781086 91074538
L155813462 92106914
" />
<path d="M44029000 123197000
L44029000 119897000
" />
<path d="M42569000 123197000
L44029000 123197000
" />
<path d="M44029000 119897000
L42569000 119897000
" />
<path d="M42569000 119897000
L42569000 123197000
" />
<path d="M123476000 124969000
L123476000 128269000
" />
<path d="M124936000 128269000
L124936000 124969000
" />
<path d="M124936000 124969000
L123476000 124969000
" />
<path d="M123476000 128269000
L124936000 128269000
" />
<path d="M166528914 97424538
L164195462 95091086
" />
<path d="M163163086 96123462
L165496538 98456914
" />
<path d="M165496538 98456914
L166528914 97424538
" />
<path d="M164195462 95091086
L163163086 96123462
" />
<path d="M76911520 128792880
L76911520 126832880
" />
<path d="M73151520 128792880
L76911520 128792880
" />
<path d="M73151520 126832880
L73151520 128792880
" />
<path d="M76911520 126832880
L73151520 126832880
" />
<path d="M214941400 120039400
L216401400 120039400
" />
<path d="M216401400 120039400
L216401400 116739400
" />
<path d="M214941400 116739400
L214941400 120039400
" />
<path d="M216401400 116739400
L214941400 116739400
" />
<path d="M107965538 86201086
L105632086 88534538
" />
<path d="M105632086 88534538
L106664462 89566914
" />
<path d="M108997914 87233462
L107965538 86201086
" />
<path d="M106664462 89566914
L108997914 87233462
" />
<path d="M175386000 117824000
L175386000 116364000
" />
<path d="M172086000 117824000
L175386000 117824000
" />
<path d="M172086000 116364000
L172086000 117824000
" />
<path d="M175386000 116364000
L172086000 116364000
" />
<path d="M66112000 75304000
L66112000 67464000
" />
<path d="M62412000 67464000
L62412000 75304000
" />
<path d="M66112000 67464000
L62412000 67464000
" />
<path d="M62412000 75304000
L66112000 75304000
" />
<path d="M217661800 126806000
L212461800 126806000
" />
<path d="M217661800 121606000
L217661800 126806000
" />
<path d="M212461800 121606000
L217661800 121606000
" />
<path d="M212461800 126806000
L212461800 121606000
" />
<path d="M204115400 128835400
L204115400 130295400
" />
<path d="M207415400 128835400
L204115400 128835400
" />
<path d="M204115400 130295400
L207415400 130295400
" />
<path d="M207415400 130295400
L207415400 128835400
" />
<path d="M83710000 67001000
L91550000 67001000
" />
<path d="M91550000 67001000
L91550000 63301000
" />
<path d="M83710000 63301000
L83710000 67001000
" />
<path d="M91550000 63301000
L83710000 63301000
" />
<path d="M81044800 112241600
L81044800 108941600
" />
<path d="M79584800 112241600
L81044800 112241600
" />
<path d="M79584800 108941600
L79584800 112241600
" />
<path d="M81044800 108941600
L79584800 108941600
" />
<path d="M159595085 94773914
L161928537 92440462
" />
<path d="M160896161 91408086
L158562709 93741538
" />
<path d="M161928537 92440462
L160896161 91408086
" />
<path d="M158562709 93741538
L159595085 94773914
" />
<path d="M207671400 123120400
L207671400 124580400
" />
<path d="M207671400 124580400
L210971400 124580400
" />
<path d="M210971400 124580400
L210971400 123120400
" />
<path d="M210971400 123120400
L207671400 123120400
" />
<path d="M144891462 90392086
L143859086 91424462
" />
<path d="M147224914 92725538
L144891462 90392086
" />
<path d="M146192538 93757914
L147224914 92725538
" />
<path d="M143859086 91424462
L146192538 93757914
" />
<path d="M87097600 119158000
L87097600 120618000
" />
<path d="M90397600 119158000
L87097600 119158000
" />
<path d="M87097600 120618000
L90397600 120618000
" />
<path d="M90397600 120618000
L90397600 119158000
" />
<path d="M216542400 116762400
L216542400 119762400
" />
<path d="M216542400 119762400
L218102400 119762400
" />
<path d="M218102400 116762400
L216542400 116762400
" />
<path d="M218102400 119762400
L218102400 116762400
" />
<path d="M149209462 96869086
L148177086 97901462
" />
<path d="M150510538 100234914
L151542914 99202538
" />
<path d="M148177086 97901462
L150510538 100234914
" />
<path d="M151542914 99202538
L149209462 96869086
" />
<path d="M91455538 80930914
L92487914 79898538
" />
<path d="M92487914 79898538
L90154462 77565086
" />
<path d="M90154462 77565086
L89122086 78597462
" />
<path d="M89122086 78597462
L91455538 80930914
" />
<path d="M44046000 122358000
L44046000 118958000
" />
<path d="M44046000 118958000
L47886000 118958000
" />
<path d="M47886000 122358000
L44046000 122358000
" />
<path d="M47886000 118958000
L47886000 122358000
" />
<path d="M132460000 114014000
L132460000 112554000
" />
<path d="M129160000 112554000
L129160000 114014000
" />
<path d="M129160000 114014000
L132460000 114014000
" />
<path d="M132460000 112554000
L129160000 112554000
" />
<path d="M120364000 128269000
L120364000 124969000
" />
<path d="M118904000 128269000
L120364000 128269000
" />
<path d="M120364000 124969000
L118904000 124969000
" />
<path d="M118904000 124969000
L118904000 128269000
" />
<path d="M92932000 74294000
L92932000 70994000
" />
<path d="M91472000 74294000
L92932000 74294000
" />
<path d="M92932000 70994000
L91472000 70994000
" />
<path d="M91472000 70994000
L91472000 74294000
" />
<path d="M73692500 83874000
L73692500 76674000
" />
<path d="M73692500 76674000
L82492500 76674000
" />
<path d="M82492500 83874000
L73692500 83874000
" />
<path d="M82492500 76674000
L82492500 83874000
" />
<path d="M56420000 117990000
L57880000 117990000
" />
<path d="M56420000 114690000
L56420000 117990000
" />
<path d="M57880000 114690000
L56420000 114690000
" />
<path d="M57880000 117990000
L57880000 114690000
" />
<path d="M120982000 102548000
L124382000 102548000
" />
<path d="M124382000 106748000
L120982000 106748000
" />
<path d="M124382000 102548000
L124382000 106748000
" />
<path d="M120982000 106748000
L120982000 102548000
" />
<path d="M124619000 106679000
L126079000 106679000
" />
<path d="M126079000 106679000
L126079000 103379000
" />
<path d="M126079000 103379000
L124619000 103379000
" />
<path d="M124619000 103379000
L124619000 106679000
" />
<path d="M157638914 101965462
L156606538 100933086
" />
<path d="M154273086 103266538
L155305462 104298914
" />
<path d="M155305462 104298914
L157638914 101965462
" />
<path d="M156606538 100933086
L154273086 103266538
" />
<path d="M51172000 118912000
L47872000 118912000
" />
<path d="M47872000 118912000
L47872000 120372000
" />
<path d="M47872000 120372000
L51172000 120372000
" />
<path d="M51172000 120372000
L51172000 118912000
" />
<path d="M94325000 70841000
L94325000 67081000
" />
<path d="M92365000 67081000
L92365000 70841000
" />
<path d="M92365000 70841000
L94325000 70841000
" />
<path d="M94325000 67081000
L92365000 67081000
" />
<path d="M120872000 103379000
L119412000 103379000
" />
<path d="M119412000 103379000
L119412000 106679000
" />
<path d="M120872000 106679000
L120872000 103379000
" />
<path d="M119412000 106679000
L120872000 106679000
" />
<path d="M73692500 67149000
L82492500 67149000
" />
<path d="M73692500 74349000
L73692500 67149000
" />
<path d="M82492500 67149000
L82492500 74349000
" />
<path d="M82492500 74349000
L73692500 74349000
" />
<path d="M67674000 87204000
L67674000 83504000
" />
<path d="M59834000 83504000
L59834000 87204000
" />
<path d="M59834000 87204000
L67674000 87204000
" />
<path d="M67674000 83504000
L59834000 83504000
" />
<path d="M44029000 119895000
L44029000 116595000
" />
<path d="M44029000 116595000
L42569000 116595000
" />
<path d="M42569000 119895000
L44029000 119895000
" />
<path d="M42569000 116595000
L42569000 119895000
" />
<path d="M94559000 73835000
L97719000 73835000
" />
<path d="M97719000 73835000
L97719000 67135000
" />
<path d="M97719000 67135000
L94559000 67135000
" />
<path d="M94559000 67135000
L94559000 73835000
" />
<path d="M73159320 126617280
L73159320 123217280
" />
<path d="M73159320 123217280
L77259320 123217280
" />
<path d="M77259320 123217280
L77259320 126617280
" />
<path d="M77259320 126617280
L73159320 126617280
" />
<path d="M79552800 112426600
L76402800 112426600
" />
<path d="M76402800 121326600
L75802800 121326600
" />
<path d="M82702800 113826600
L83302800 113826600
" />
<path d="M75802800 114426600
L74402800 114426600
" />
<path d="M74402800 114426600
L74402800 117576600
" />
<path d="M79552800 112426600
L82702800 112426600
" />
<path d="M82702800 122726600
L82702800 121326600
" />
<path d="M83302800 113826600
L83302800 114426600
" />
<path d="M75802800 120726600
L74402800 120726600
" />
<path d="M79552800 122726600
L76402800 122726600
" />
<path d="M83302800 114426600
L84702800 114426600
" />
<path d="M82702800 121326600
L83302800 121326600
" />
<path d="M76402800 113826600
L75802800 113826600
" />
<path d="M82702800 112426600
L82702800 113826600
" />
<path d="M83302800 120726600
L84702800 120726600
" />
<path d="M84702800 120726600
L84702800 117576600
" />
<path d="M84702800 114426600
L84702800 117576600
" />
<path d="M75802800 121326600
L75802800 120726600
" />
<path d="M76402800 112426600
L76402800 113826600
" />
<path d="M83302800 121326600
L83302800 120726600
" />
<path d="M79552800 122726600
L82702800 122726600
" />
<path d="M74402800 120726600
L74402800 117576600
" />
<path d="M75802800 113826600
L75802800 114426600
" />
<path d="M76402800 122726600
L76402800 121326600
" />
<path d="M129160000 115538000
L132460000 115538000
" />
<path d="M132460000 114078000
L129160000 114078000
" />
<path d="M132460000 115538000
L132460000 114078000
" />
<path d="M129160000 114078000
L129160000 115538000
" />
<path d="M87916000 125144800
L89376000 125144800
" />
<path d="M89376000 125144800
L89376000 121844800
" />
<path d="M89376000 121844800
L87916000 121844800
" />
<path d="M87916000 121844800
L87916000 125144800
" />
<path d="M210369400 116739400
L210369400 120039400
" />
<path d="M210369400 120039400
L211829400 120039400
" />
<path d="M211829400 116739400
L210369400 116739400
" />
<path d="M211829400 120039400
L211829400 116739400
" />
<path d="M100938600 121761000
L100938600 120301000
" />
<path d="M97638600 121761000
L100938600 121761000
" />
<path d="M100938600 120301000
L97638600 120301000
" />
<path d="M97638600 120301000
L97638600 121761000
" />
<path d="M88503462 78962086
L87471086 79994462
" />
<path d="M87471086 79994462
L89804538 82327914
" />
<path d="M89804538 82327914
L90836914 81295538
" />
<path d="M90836914 81295538
L88503462 78962086
" />
<path d="M155797086 103997462
L158130538 106330914
" />
<path d="M156829462 102965086
L155797086 103997462
" />
<path d="M158130538 106330914
L159162914 105298538
" />
<path d="M159162914 105298538
L156829462 102965086
" />
<path d="M213353400 116739400
L211893400 116739400
" />
<path d="M211893400 120039400
L213353400 120039400
" />
<path d="M213353400 120039400
L213353400 116739400
" />
<path d="M211893400 116739400
L211893400 120039400
" />
<path d="M79313520 126898880
L79313520 123138880
" />
<path d="M77353520 123138880
L77353520 126898880
" />
<path d="M79313520 123138880
L77353520 123138880
" />
<path d="M77353520 126898880
L79313520 126898880
" />
<path d="M87097600 115436400
L90397600 115436400
" />
<path d="M87097600 113976400
L87097600 115436400
" />
<path d="M90397600 113976400
L87097600 113976400
" />
<path d="M90397600 115436400
L90397600 113976400
" />
<path d="M83471000 124257800
L83471000 127557800
" />
<path d="M83471000 127557800
L84931000 127557800
" />
<path d="M84931000 127557800
L84931000 124257800
" />
<path d="M84931000 124257800
L83471000 124257800
" />
<path d="M175736000 82930000
L175736000 79630000
" />
<path d="M174276000 82930000
L175736000 82930000
" />
<path d="M174276000 79630000
L174276000 82930000
" />
<path d="M175736000 79630000
L174276000 79630000
" />
<path d="M199559400 125048400
L199559400 128748400
" />
<path d="M199559400 128748400
L207399400 128748400
" />
<path d="M207399400 125048400
L199559400 125048400
" />
<path d="M207399400 128748400
L207399400 125048400
" />
<path d="M110602000 115775000
L114442000 115775000
" />
<path d="M114442000 119175000
L110602000 119175000
" />
<path d="M114442000 115775000
L114442000 119175000
" />
<path d="M110602000 119175000
L110602000 115775000
" />
<path d="M91395000 74339000
L82595000 74339000
" />
<path d="M91395000 67139000
L91395000 74339000
" />
<path d="M82595000 67139000
L91395000 67139000
" />
<path d="M82595000 74339000
L82595000 67139000
" />
<path d="M114555000 115729000
L114555000 117189000
" />
<path d="M114555000 117189000
L117855000 117189000
" />
<path d="M117855000 117189000
L117855000 115729000
" />
<path d="M117855000 115729000
L114555000 115729000
" />
<path d="M215639400 127661400
L214179400 127661400
" />
<path d="M214179400 127661400
L214179400 130961400
" />
<path d="M214179400 130961400
L215639400 130961400
" />
<path d="M215639400 130961400
L215639400 127661400
" />
<path d="M153019462 102012914
L155352914 99679462
" />
<path d="M154320538 98647086
L151987086 100980538
" />
<path d="M155352914 99679462
L154320538 98647086
" />
<path d="M151987086 100980538
L153019462 102012914
" />
<path d="M62312000 82985000
L53512000 82985000
" />
<path d="M53512000 82985000
L53512000 75785000
" />
<path d="M53512000 75785000
L62312000 75785000
" />
<path d="M62312000 75785000
L62312000 82985000
" />
<path d="M129160000 115602000
L129160000 117062000
" />
<path d="M132460000 117062000
L132460000 115602000
" />
<path d="M129160000 117062000
L132460000 117062000
" />
<path d="M132460000 115602000
L129160000 115602000
" />
<path d="M86629538 86264914
L87661914 85232538
" />
<path d="M85328462 82899086
L84296086 83931462
" />
<path d="M87661914 85232538
L85328462 82899086
" />
<path d="M84296086 83931462
L86629538 86264914
" />
<path d="M207671400 124644400
L207671400 126104400
" />
<path d="M207671400 126104400
L210971400 126104400
" />
<path d="M210971400 126104400
L210971400 124644400
" />
<path d="M210971400 124644400
L207671400 124644400
" />
<path d="M215703400 130961400
L217163400 130961400
" />
<path d="M217163400 130961400
L217163400 127661400
" />
<path d="M215703400 127661400
L215703400 130961400
" />
<path d="M217163400 127661400
L215703400 127661400
" />
<path d="M218687400 127661400
L217227400 127661400
" />
<path d="M217227400 130961400
L218687400 130961400
" />
<path d="M218687400 130961400
L218687400 127661400
" />
<path d="M217227400 127661400
L217227400 130961400
" />
<path d="M76170500 87839000
L76170500 84139000
" />
<path d="M68330500 87839000
L76170500 87839000
" />
<path d="M68330500 84139000
L68330500 87839000
" />
<path d="M76170500 84139000
L68330500 84139000
" />
<path d="M68417000 71359000
L68417000 67599000
" />
<path d="M68417000 67599000
L66457000 67599000
" />
<path d="M66457000 67599000
L66457000 71359000
" />
<path d="M66457000 71359000
L68417000 71359000
" />
<path d="M166148000 81660000
L167608000 81660000
" />
<path d="M167608000 78360000
L166148000 78360000
" />
<path d="M166148000 78360000
L166148000 81660000
" />
<path d="M167608000 81660000
L167608000 78360000
" />
<path d="M127667000 124969000
L127667000 128269000
" />
<path d="M127667000 128269000
L129127000 128269000
" />
<path d="M129127000 128269000
L129127000 124969000
" />
<path d="M129127000 124969000
L127667000 124969000
" />
<path d="M122681000 98647000
L122681000 97187000
" />
<path d="M122681000 97187000
L119381000 97187000
" />
<path d="M119381000 98647000
L122681000 98647000
" />
<path d="M119381000 97187000
L119381000 98647000
" />
<path d="M210971400 129152400
L210971400 127692400
" />
<path d="M207671400 127692400
L207671400 129152400
" />
<path d="M207671400 129152400
L210971400 129152400
" />
<path d="M210971400 127692400
L207671400 127692400
" />
<path d="M125874000 72826000
L125874000 76526000
" />
<path d="M125874000 76526000
L133714000 76526000
" />
<path d="M133714000 76526000
L133714000 72826000
" />
<path d="M133714000 72826000
L125874000 72826000
" />
<path d="M127603000 124969000
L126143000 124969000
" />
<path d="M126143000 124969000
L126143000 128269000
" />
<path d="M127603000 128269000
L127603000 124969000
" />
<path d="M126143000 128269000
L127603000 128269000
" />
<path d="M127428000 77628000
L123728000 77628000
" />
<path d="M123728000 77628000
L123728000 85468000
" />
<path d="M127428000 85468000
L127428000 77628000
" />
<path d="M123728000 85468000
L127428000 85468000
" />
<path d="M125940000 72726000
L125940000 63926000
" />
<path d="M133140000 72726000
L125940000 72726000
" />
<path d="M125940000 63926000
L133140000 63926000
" />
<path d="M133140000 63926000
L133140000 72726000
" />
<path d="M140002000 68382000
L140002000 65222000
" />
<path d="M133302000 65222000
L133302000 68382000
" />
<path d="M140002000 65222000
L133302000 65222000
" />
<path d="M133302000 68382000
L140002000 68382000
" />
<path d="M44029000 116593000
L44029000 113293000
" />
<path d="M42569000 116593000
L44029000 116593000
" />
<path d="M42569000 113293000
L42569000 116593000
" />
<path d="M44029000 113293000
L42569000 113293000
" />
<path d="M68417000 79360000
L68417000 75600000
" />
<path d="M66457000 79360000
L68417000 79360000
" />
<path d="M66457000 75600000
L66457000 79360000
" />
<path d="M68417000 75600000
L66457000 75600000
" />
<path d="M210971400 121532400
L210971400 120072400
" />
<path d="M210971400 120072400
L207671400 120072400
" />
<path d="M207671400 120072400
L207671400 121532400
" />
<path d="M207671400 121532400
L210971400 121532400
" />
<path d="M82848200 126440200
L82848200 123140200
" />
<path d="M82848200 123140200
L81388200 123140200
" />
<path d="M81388200 123140200
L81388200 126440200
" />
<path d="M81388200 126440200
L82848200 126440200
" />
<path d="M114512000 86954000
L114512000 83254000
" />
<path d="M106672000 86954000
L114512000 86954000
" />
<path d="M106672000 83254000
L106672000 86954000
" />
<path d="M114512000 83254000
L106672000 83254000
" />
<path d="M87013800 113970800
L85553800 113970800
" />
<path d="M85553800 113970800
L85553800 117270800
" />
<path d="M87013800 117270800
L87013800 113970800
" />
<path d="M85553800 117270800
L87013800 117270800
" />
<path d="M106771000 123596000
L104811000 123596000
" />
<path d="M104811000 127356000
L106771000 127356000
" />
<path d="M106771000 127356000
L106771000 123596000
" />
<path d="M104811000 123596000
L104811000 127356000
" />
<path d="M87013800 117323600
L85553800 117323600
" />
<path d="M87013800 120623600
L87013800 117323600
" />
<path d="M85553800 117323600
L85553800 120623600
" />
<path d="M85553800 120623600
L87013800 120623600
" />
<path d="M66112000 83305000
L66112000 75465000
" />
<path d="M66112000 75465000
L62412000 75465000
" />
<path d="M62412000 75465000
L62412000 83305000
" />
<path d="M62412000 83305000
L66112000 83305000
" />
<path d="M52911000 83647000
L52911000 86807000
" />
<path d="M59611000 86807000
L59611000 83647000
" />
<path d="M59611000 83647000
L52911000 83647000
" />
<path d="M52911000 86807000
L59611000 86807000
" />
<path d="M103235462 91027086
L102203086 92059462
" />
<path d="M104536538 94392914
L105568914 93360538
" />
<path d="M102203086 92059462
L104536538 94392914
" />
<path d="M105568914 93360538
L103235462 91027086
" />
<path d="M84854800 110873100
L83394800 110873100
" />
<path d="M83394800 114173100
L84854800 114173100
" />
<path d="M83394800 110873100
L83394800 114173100
" />
<path d="M84854800 114173100
L84854800 110873100
" />
<path d="M72963520 126898880
L72963520 123138880
" />
<path d="M72963520 123138880
L71003520 123138880
" />
<path d="M71003520 126898880
L72963520 126898880
" />
<path d="M71003520 123138880
L71003520 126898880
" />
<path d="M155666922 96165796
L156869004 97367878
" />
<path d="M159343878 94893004
L158141796 93690922
" />
<path d="M158141796 93690922
L155666922 96165796
" />
<path d="M156869004 97367878
L159343878 94893004
" />
<path d="M58718000 124266000
L52518000 124266000
" />
<path d="M52518000 124266000
L52518000 118066000
" />
<path d="M58718000 118066000
L58718000 124266000
" />
<path d="M52518000 118066000
L58718000 118066000
" />
<path d="M73277520 121444880
L73277520 123004880
" />
<path d="M73277520 123004880
L76277520 123004880
" />
<path d="M76277520 123004880
L76277520 121444880
" />
<path d="M76277520 121444880
L73277520 121444880
" />
<path d="M67674000 63565000
L59834000 63565000
" />
<path d="M67674000 67265000
L67674000 63565000
" />
<path d="M59834000 63565000
L59834000 67265000
" />
<path d="M59834000 67265000
L67674000 67265000
" />
<path d="M122102000 64914000
L122102000 72754000
" />
<path d="M125802000 72754000
L125802000 64914000
" />
<path d="M122102000 72754000
L125802000 72754000
" />
<path d="M125802000 64914000
L122102000 64914000
" />
<path d="M114174000 111284000
L114174000 112744000
" />
<path d="M117474000 112744000
L117474000 111284000
" />
<path d="M114174000 112744000
L117474000 112744000
" />
<path d="M117474000 111284000
L114174000 111284000
" />
<path d="M115952000 110712000
L119252000 110712000
" />
<path d="M119252000 110712000
L119252000 109252000
" />
<path d="M115952000 109252000
L115952000 110712000
" />
<path d="M119252000 109252000
L115952000 109252000
" />
<path d="M123501000 80488000
L123501000 87688000
" />
<path d="M114701000 80488000
L123501000 80488000
" />
<path d="M114701000 87688000
L114701000 80488000
" />
<path d="M123501000 87688000
L114701000 87688000
" />
<path d="M89646462 104235086
L88614086 105267462
" />
<path d="M90947538 107600914
L91979914 106568538
" />
<path d="M91979914 106568538
L89646462 104235086
" />
<path d="M88614086 105267462
L90947538 107600914
" />
<path d="M212591400 127661400
L211131400 127661400
" />
<path d="M211131400 130961400
L212591400 130961400
" />
<path d="M211131400 127661400
L211131400 130961400
" />
<path d="M212591400 130961400
L212591400 127661400
" />
<path d="M229894400 123501400
L226594400 123501400
" />
<path d="M226594400 124961400
L229894400 124961400
" />
<path d="M229894400 124961400
L229894400 123501400
" />
<path d="M226594400 123501400
L226594400 124961400
" />
<path d="M182500000 128048000
L182500000 129508000
" />
<path d="M185800000 128048000
L182500000 128048000
" />
<path d="M185800000 129508000
L185800000 128048000
" />
<path d="M182500000 129508000
L185800000 129508000
" />
<path d="M59611000 63835000
L52911000 63835000
" />
<path d="M59611000 66995000
L59611000 63835000
" />
<path d="M52911000 63835000
L52911000 66995000
" />
<path d="M52911000 66995000
L59611000 66995000
" />
<path d="M73465500 75719000
L69765500 75719000
" />
<path d="M69765500 75719000
L69765500 83559000
" />
<path d="M73465500 83559000
L73465500 75719000
" />
<path d="M69765500 83559000
L73465500 83559000
" />
<path d="M214877400 116739400
L213417400 116739400
" />
<path d="M213417400 120039400
L214877400 120039400
" />
<path d="M214877400 120039400
L214877400 116739400
" />
<path d="M213417400 116739400
L213417400 120039400
" />
<path d="M68584500 66884000
L76424500 66884000
" />
<path d="M76424500 63184000
L68584500 63184000
" />
<path d="M68584500 63184000
L68584500 66884000
" />
<path d="M76424500 66884000
L76424500 63184000
" />
<path d="M83474500 63454000
L76774500 63454000
" />
<path d="M83474500 66614000
L83474500 63454000
" />
<path d="M76774500 66614000
L83474500 66614000
" />
<path d="M76774500 63454000
L76774500 66614000
" />
<path d="M86607400 124257800
L85147400 124257800
" />
<path d="M86607400 127557800
L86607400 124257800
" />
<path d="M85147400 124257800
L85147400 127557800
" />
<path d="M85147400 127557800
L86607400 127557800
" />
<path d="M100060462 94075086
L99028086 95107462
" />
<path d="M99028086 95107462
L101361538 97440914
" />
<path d="M101361538 97440914
L102393914 96408538
" />
<path d="M102393914 96408538
L100060462 94075086
" />
<path d="M161898019 92465675
L159239298 95124396
" />
<path d="M160625227 96510325
L163283948 93851604
" />
<path d="M163283948 93851604
L161898019 92465675
" />
<path d="M159239298 95124396
L160625227 96510325
" />
<path d="M99488000 128345000
L89488000 128345000
" />
<path d="M99488000 121845000
L99488000 128345000
" />
<path d="M89488000 128345000
L89488000 121845000
" />
<path d="M99488000 121845000
L89488000 121845000
" />
<path d="M141860000 78264000
L141860000 79724000
" />
<path d="M145160000 78264000
L141860000 78264000
" />
<path d="M141860000 79724000
L145160000 79724000
" />
<path d="M145160000 79724000
L145160000 78264000
" />
<path d="M114555000 117253000
L114555000 118713000
" />
<path d="M117855000 118713000
L117855000 117253000
" />
<path d="M117855000 117253000
L114555000 117253000
" />
<path d="M114555000 118713000
L117855000 118713000
" />
<path d="M219703400 120039400
L219703400 116739400
" />
<path d="M218243400 116739400
L218243400 120039400
" />
<path d="M219703400 116739400
L218243400 116739400
" />
<path d="M218243400 120039400
L219703400 120039400
" />
<path d="M226282000 114174000
L224822000 114174000
" />
<path d="M226282000 117474000
L226282000 114174000
" />
<path d="M224822000 117474000
L226282000 117474000
" />
<path d="M224822000 114174000
L224822000 117474000
" />
<path d="M110251538 88487086
L107918086 90820538
" />
<path d="M111283914 89519462
L110251538 88487086
" />
<path d="M107918086 90820538
L108950462 91852914
" />
<path d="M108950462 91852914
L111283914 89519462
" />
<path d="M160404537 98917462
L159372161 97885086
" />
<path d="M159372161 97885086
L157038709 100218538
" />
<path d="M158071085 101250914
L160404537 98917462
" />
<path d="M157038709 100218538
L158071085 101250914
" />
<path d="M107508000 64174000
L105548000 64174000
" />
<path d="M107508000 67934000
L107508000 64174000
" />
<path d="M105548000 64174000
L105548000 67934000
" />
<path d="M105548000 67934000
L107508000 67934000
" />
<path d="M110889000 127049000
L106789000 127049000
" />
<path d="M106789000 123649000
L110889000 123649000
" />
<path d="M110889000 123649000
L110889000 127049000
" />
<path d="M106789000 127049000
L106789000 123649000
" />
<path d="M115729000 124969000
L115729000 128269000
" />
<path d="M117189000 124969000
L115729000 124969000
" />
<path d="M115729000 128269000
L117189000 128269000
" />
<path d="M117189000 128269000
L117189000 124969000
" />
<path d="M122683000 106839000
L122683000 108299000
" />
<path d="M125983000 106839000
L122683000 106839000
" />
<path d="M122683000 108299000
L125983000 108299000
" />
<path d="M125983000 108299000
L125983000 106839000
" />
<path d="M139239000 90984000
L139239000 97484000
" />
<path d="M129239000 97484000
L129239000 90984000
" />
<path d="M139239000 90984000
L129239000 90984000
" />
<path d="M139239000 97484000
L129239000 97484000
" />
<path d="M51222800 116118000
L47922800 116118000
" />
<path d="M51222800 117578000
L51222800 116118000
" />
<path d="M47922800 117578000
L51222800 117578000
" />
<path d="M47922800 116118000
L47922800 117578000
" />
<path d="M92996000 74294000
L94456000 74294000
" />
<path d="M94456000 74294000
L94456000 70994000
" />
<path d="M94456000 70994000
L92996000 70994000
" />
<path d="M92996000 70994000
L92996000 74294000
" />
<path d="M135346000 68478000
L133386000 68478000
" />
<path d="M135346000 72238000
L135346000 68478000
" />
<path d="M133386000 68478000
L133386000 72238000
" />
<path d="M133386000 72238000
L135346000 72238000
" />
<path d="M158210086 104155538
L159242462 105187914
" />
<path d="M160543538 101822086
L158210086 104155538
" />
<path d="M161575914 102854462
L160543538 101822086
" />
<path d="M159242462 105187914
L161575914 102854462
" />
<path d="M129160000 117126000
L129160000 118586000
" />
<path d="M132460000 118586000
L132460000 117126000
" />
<path d="M132460000 117126000
L129160000 117126000
" />
<path d="M129160000 118586000
L132460000 118586000
" />
<path d="M122681000 106839000
L119381000 106839000
" />
<path d="M119381000 108299000
L122681000 108299000
" />
<path d="M119381000 106839000
L119381000 108299000
" />
<path d="M122681000 108299000
L122681000 106839000
" />
<path d="M82512500 76428000
L82512500 74468000
" />
<path d="M78752500 74468000
L78752500 76428000
" />
<path d="M78752500 76428000
L82512500 76428000
" />
<path d="M82512500 74468000
L78752500 74468000
" />
<path d="M189753000 129462000
L185913000 129462000
" />
<path d="M185913000 129462000
L185913000 126062000
" />
<path d="M185913000 126062000
L189753000 126062000
" />
<path d="M189753000 126062000
L189753000 129462000
" />
<g >
</g>
<g >
</g>
<g >
</g>
<g >
</g>
<g >
</g>
<g >
</g>
<g >
</g>
<g >
</g>
<g >
</g>
<g >
</g>
<g >
</g>
<g >
</g>
<g >
</g>
<g >
</g>
<g >
</g>
<g >
</g>
<g >
</g>
<g >
</g>
<g >
</g>
<g >
</g>
<g >
</g>
<g >
</g>
<g >
</g>
<g >
</g>
<g >
</g>
<g >
</g>
<g >
</g>
<g >
</g>
<g >
</g>
<g >
</g>
<g >
</g>
<g >
</g>
<g >
</g>
<g >
</g>
<g >
</g>
<g >
</g>
<g >
</g>
<g >
</g>
<g >
</g>
<g >
</g>
<g >
</g>
<g >
</g>
<g >
</g>
<g >
</g>
<g >
</g>
<g >
</g>
<g >
</g>
<g >
</g>
<g >
</g>
<g >
</g>
<g >
</g>
<g >
</g>
<g >
</g>
<g >
</g>
<g >
</g>
<g >
</g>
<g >
</g>
<g >
</g>
<g >
</g>
<g >
</g>
<g >
</g>
<g >
</g>
<g >
</g>
<g >
</g>
<g >
</g>
<g >
</g>
<g >
</g>
<g >
</g>
<g >
</g>
<g >
</g>
<g >
</g>
<g >
</g>
<g >
</g>
<g >
</g>
<g >
</g>
<g >
</g>
<g >
</g>
<g >
</g>
<g >
</g>
<g >
</g>
<g >
</g>
<g >
</g>
<g >
</g>
<g >
</g>
<g >
</g>
<g >
</g>
<g >
</g>
<g >
</g>
<g >
</g>
<g >
</g>
<g >
</g>
<g >
</g>
<g >
</g>
<g >
</g>
<g >
</g>
<g >
</g>
<g >
</g>
<g >
</g>
<g >
</g>
<g >
</g>
<g >
</g>
<g >
</g>
<g >
</g>
<g >
</g>
<g >
</g>
<g >
</g>
<g >
</g>
<g >
</g>
<g >
</g>
<g >
</g>
<g >
</g>
<g >
</g>
<g >
</g>
<g >
</g>
<g >
</g>
<g >
</g>
<g >
</g>
<g >
</g>
<g >
</g>
<g >
</g>
<g >
</g>
<g >
</g>
<g >
</g>
<g >
</g>
<g >
</g>
<g >
</g>
<g >
</g>
<g >
</g>
<g >
</g>
<g >
</g>
<g >
</g>
<g >
</g>
<g >
</g>
<g >
</g>
<g >
</g>
<g >
</g>
<g >
</g>
<g >
</g>
<g >
</g>
<g >
</g>
<g >
</g>
<g >
</g>
<g >
</g>
<g >
</g>
<g >
</g>
<g >
</g>
<g >
</g>
<g >
</g>
<g >
</g>
<g >
</g>
<g >
</g>
<g >
</g>
<g >
</g>
<g >
</g>
<g >
</g>
<g >
</g>
<g >
</g>
<g >
</g>
<g >
</g>
<g >
</g>
<g >
</g>
<g >
</g>
<g >
</g>
<g >
</g>
<g >
</g>
<g >
</g>
<g >
</g>
<g >
</g>
<g >
</g>
<g >
</g>
<g >
</g>
<g >
</g>
<g >
</g>
<g >
</g>
<g >
</g>
<g >
</g>
<g >
</g>
<g >
</g>
<g >
</g>
<g >
</g>
<g >
</g>
<g >
</g>
<g >
</g>
<g >
</g>
<g >
</g>
<g >
</g>
<g >
</g>
<g >
</g>
<g >
</g>
<g >
</g>
<g >
</g>
<g >
</g>
<g >
</g>
<g >
</g>
<g >
</g>
<g >
</g>
<g >
</g>
<g >
</g>
<g >
</g>
<g >
</g>
<g >
</g>
<g >
</g>
<g >
</g>
<g >
</g>
<g >
</g>
<g >
</g>
<g >
</g>
<g >
</g>
<g >
</g>
<g >
</g>
<g >
</g>
<g >
</g>
<g >
</g>
<g >
</g>
<g >
</g>
<g >
</g>
<g >
</g>
<g >
</g>
<g >
</g>
<g >
</g>
<g >
</g>
<g >
</g>
<g >
</g>
<g >
</g>
<g >
</g>
<g >
</g>
<g >
</g>
<g >
</g>
<g >
</g>
<g >
</g>
<g >
</g>
<g >
</g>
<g >
</g>
<g >
</g>
<g >
</g>
<g >
</g>
<g >
</g>
<g >
</g>
<g >
</g>
<g >
</g>
<g >
</g>
<g >
</g>
<g >
</g>
<g >
</g>
<g >
</g>
<g >
</g>
<g >
</g>
<g >
</g>
<g >
</g>
<g >
</g>
<g >
</g>
<g >
</g>
<g >
</g>
<g >
</g>
<g >
</g>
<g >
</g>
<g >
</g>
<g >
</g>
<g >
</g>
<g >
</g>
<g >
</g>
<g >
</g>
<g >
</g>
<g >
</g>
<g >
</g>
<g >
</g>
<g >
</g>
<g >
</g>
<g >
</g>
<g >
</g>
<g >
</g>
<g >
</g>
<g >
</g>
<g >
</g>
<g >
</g>
<g >
</g>
<g >
</g>
<g >
</g>
<g >
</g>
<g >
</g>
<g >
</g>
<g >
</g>
<g >
</g>
<g >
</g>
<g >
</g>
<g >
</g>
<g >
</g>
<g >
</g>
<g >
</g>
<g >
</g>
<g >
</g>
<g >
</g>
<g >
</g>
<g >
</g>
<g >
</g>
<g >
</g>
<g >
</g>
<g >
</g>
<g >
</g>
<g >
</g>
<g >
</g>
<g >
</g>
<g >
</g>
<g >
</g>
<g >
</g>
<g >
</g>
<g >
</g>
<g >
</g>
<g >
</g>
<g >
</g>
<g >
</g>
<g >
</g>
<g >
</g>
<g >
</g>
<g >
</g>
<g >
</g>
<g >
</g>
</g>
<g style="fill:#000000; fill-opacity:0.0; 
stroke:#000000; stroke-width:50000.000000; stroke-opacity:1; 
stroke-linecap:round; stroke-linejoin:round;">
<g >
</g>
<g >
</g>
<g >
</g>
<g >
</g>
<g >
</g>
<g >
</g>
<g >
</g>
<g >
</g>
<g >
</g>
<g >
</g>
<g >
</g>
<g >
</g>
<g >
</g>
<g >
</g>
<g >
</g>
<g >
</g>
<g >
</g>
<g >
</g>
<g >
</g>
<g >
</g>
<g >
</g>
<g >
</g>
<g >
</g>
<g >
</g>
<g >
</g>
<g >
</g>
<g >
</g>
<g >
</g>
<g >
</g>
<g >
</g>
<g >
</g>
<g >
</g>
<g >
</g>
<g >
</g>
<g >
</g>
<g >
</g>
<g >
</g>
<g >
</g>
<g >
</g>
<g >
</g>
<g >
</g>
<g >
</g>
<g >
</g>
<g >
</g>
<g >
</g>
<g >
</g>
<g >
</g>
<g >
</g>
<g >
</g>
<g >
</g>
<g >
</g>
<g >
</g>
<g >
</g>
<g >
</g>
<g >
</g>
<g >
</g>
<g >
</g>
<g >
</g>
<g >
</g>
<g >
</g>
<g >
</g>
<g >
</g>
<g >
</g>
<g >
</g>
<g >
</g>
<g >
</g>
<g >
</g>
<g >
</g>
<g >
</g>
<g >
</g>
<g >
</g>
<g >
</g>
<g >
</g>
<g >
</g>
<g >
</g>
<g >
</g>
<g >
</g>
<g >
</g>
<g >
</g>
<g >
</g>
<g >
</g>
<g >
</g>
<g >
</g>
<g >
</g>
<g >
</g>
<g >
</g>
<g >
</g>
<g >
</g>
<g >
</g>
<g >
</g>
<g >
</g>
<g >
</g>
<g >
</g>
<g >
</g>
<g >
</g>
<g >
</g>
<g >
</g>
<g >
</g>
<g >
</g>
<g >
</g>
<g >
</g>
<g >
</g>
<g >
</g>
<g >
</g>
<g >
</g>
<g >
</g>
<g >
</g>
<g >
</g>
<g >
</g>
<g >
</g>
<g >
</g>
<g >
</g>
<g >
</g>
<g >
</g>
<g >
</g>
<g >
</g>
<g >
</g>
<g >
</g>
<g >
</g>
<g >
</g>
<g >
</g>
<g >
</g>
<g >
</g>
<g >
</g>
<g >
</g>
<g >
</g>
<g >
</g>
<g >
</g>
<g >
</g>
<g >
</g>
<g >
</g>
<g >
</g>
<g >
</g>
<g >
</g>
<g >
</g>
<g >
</g>
<g >
</g>
<g >
</g>
<g >
</g>
<g >
</g>
<g >
</g>
<g >
</g>
<g >
</g>
<g >
</g>
<g >
</g>
<g >
</g>
<g >
</g>
<g >
</g>
<g >
</g>
<g >
</g>
<g >
</g>
<g >
</g>
<g >
</g>
<g >
</g>
<g >
</g>
<g >
</g>
<g >
</g>
<g >
</g>
<g >
</g>
<g >
</g>
<g >
</g>
<g >
</g>
<g >
</g>
<g >
</g>
<g >
</g>
<g >
</g>
<g >
</g>
<g >
</g>
<g >
</g>
<g >
</g>
<g >
</g>
<g >
</g>
<g >
</g>
<g >
</g>
<g >
</g>
<g >
</g>
<g >
</g>
<g >
</g>
<g >
</g>
<g >
</g>
<g >
</g>
<g >
</g>
<g >
</g>
<g >
</g>
<g >
</g>
<g >
</g>
<g >
</g>
<g >
</g>
<g >
</g>
<g >
</g>
<g >
</g>
<g >
</g>
<g >
</g>
<g >
</g>
<g >
</g>
<g >
</g>
<g >
</g>
<g >
</g>
<g >
</g>
<g >
</g>
<g >
</g>
<g >
</g>
<g >
</g>
<g >
</g>
<g >
</g>
<g >
</g>
<g >
</g>
<g >
</g>
<g >
</g>
<g >
</g>
<g >
</g>
<g >
</g>
<g >
</g>
<g >
</g>
<g >
</g>
<g >
</g>
<g >
</g>
<g >
</g>
<g >
</g>
<g >
</g>
<g >
</g>
<g >
</g>
<g >
</g>
<g >
</g>
<g >
</g>
<g >
</g>
<g >
</g>
<g >
</g>
<g >
</g>
<g >
</g>
<g >
</g>
<g >
</g>
<g >
</g>
<g >
</g>
<g >
</g>
<g >
</g>
<g >
</g>
<g >
</g>
<g >
</g>
<g >
</g>
<g >
</g>
<g >
</g>
<g >
</g>
<g >
</g>
<g >
</g>
<g >
</g>
<g >
</g>
<g >
</g>
<g >
</g>
<g >
</g>
<g >
</g>
<g >
</g>
<g >
</g>
<g >
</g>
<g >
</g>
<g >
</g>
<g >
</g>
<g >
</g>
<g >
</g>
<g >
</g>
<g >
</g>
<g >
</g>
<g >
</g>
<g >
</g>
<g >
</g>
<g >
</g>
<g >
</g>
<g >
</g>
<g >
</g>
<g >
</g>
<g >
</g>
<g >
</g>
<g >
</g>
<g >
</g>
<g >
</g>
<g >
</g>
<g >
</g>
<g >
</g>
<g >
</g>
<g >
</g>
<g >
</g>
<g >
</g>
<g >
</g>
<g >
</g>
<g >
</g>
<g >
</g>
<g >
</g>
<g >
</g>
<g >
</g>
<g >
</g>
<g >
</g>
<g >
</g>
<g >
</g>
<g >
</g>
<g >
</g>
<g >
</g>
<g >
</g>
<g >
</g>
<g >
</g>
<g >
</g>
<g >
</g>
<g >
</g>
<g >
</g>
<g >
</g>
<g >
</g>
<g >
</g>
<g >
</g>
<g >
</g>
<g >
</g>
<g >
</g>
<g >
</g>
<g >
</g>
<g >
</g>
<g >
</g>
<g >
</g>
<g >
</g>
<g >
</g>
</g> 
</svg>
