<?xml version="1.0" standalone="no"?>
 <!DOCTYPE svg PUBLIC "-//W3C//DTD SVG 1.1//EN" 
 "http://www.w3.org/Graphics/SVG/1.1/DTD/svg11.dtd"> 
<svg
  xmlns:svg="http://www.w3.org/2000/svg"
  xmlns="http://www.w3.org/2000/svg"
  xmlns:xlink="http://www.w3.org/1999/xlink"
  version="1.1"
  width="118.899940cm" height="84.099400cm" viewBox="0 0 1188999400 840994000">
<title>SVG Picture created as project-F_Courtyard.svg date 2022/02/16 18:46:07 </title>
  <desc>Picture generated by PCBNEW </desc>
<g style="fill:#000000; fill-opacity:1.000000;stroke:#000000; stroke-opacity:1.000000;
stroke-linecap:round; stroke-linejoin:round;"
 transform="translate(0 0) scale(1 1)">
</g>
<g style="fill:#000000; fill-opacity:0.0; 
stroke:#000000; stroke-width:0.000000; stroke-opacity:1; 
stroke-linecap:round; stroke-linejoin:round;">
</g>
<g style="fill:#FF26E2; fill-opacity:0.0; 
stroke:#FF26E2; stroke-width:0.000000; stroke-opacity:1; 
stroke-linecap:round; stroke-linejoin:round;">
</g>
<g style="fill:#FF26E2; fill-opacity:0.0; 
stroke:#FF26E2; stroke-width:50000.000000; stroke-opacity:1; 
stroke-linecap:round; stroke-linejoin:round;">
<path d="M45164000 105347000
L45164000 102047000
" />
<path d="M46624000 102047000
L46624000 105347000
" />
<path d="M46624000 105347000
L45164000 105347000
" />
<path d="M45164000 102047000
L46624000 102047000
" />
<path d="M207039000 87775000
L203679000 87775000
" />
<path d="M203679000 87775000
L203679000 86215000
" />
<path d="M203679000 86215000
L207039000 86215000
" />
<path d="M207039000 86215000
L207039000 87775000
" />
<path d="M133484000 132585000
L112134000 132585000
" />
<path d="M112134000 129035000
L133484000 129035000
" />
<path d="M112134000 132585000
L112134000 129035000
" />
<path d="M133484000 129035000
L133484000 132585000
" />
<path d="M107680462 83661086
L110013914 85994538
" />
<path d="M108981538 87026914
L106648086 84693462
" />
<path d="M106648086 84693462
L107680462 83661086
" />
<path d="M110013914 85994538
L108981538 87026914
" />
<path d="M216330000 125635000
L212930000 125635000
" />
<path d="M212930000 125635000
L212930000 129635000
" />
<path d="M212930000 129635000
L216330000 129635000
" />
<path d="M216330000 129635000
L216330000 125635000
" />
<path d="M143672262 97885086
L146005714 100218538
" />
<path d="M142639886 98917462
L143672262 97885086
" />
<path d="M144973338 101250914
L142639886 98917462
" />
<path d="M146005714 100218538
L144973338 101250914
" />
<path d="M142187899 97915604
L139571604 100531899
" />
<path d="M138228101 99188396
L140844396 96572101
" />
<path d="M140844396 96572101
L142187899 97915604
" />
<path d="M139571604 100531899
L138228101 99188396
" />
<path d="M218147000 123556000
L218147000 127396000
" />
<path d="M218147000 127396000
L216447000 127396000
" />
<path d="M216447000 127396000
L216447000 123556000
" />
<path d="M216447000 123556000
L218147000 123556000
" />
<path d="M230735000 100414000
L230735000 98214000
" />
<path d="M227735000 98214000
L230735000 98214000
" />
<path d="M227735000 100414000
L230735000 100414000
" />
<path d="M227735000 98214000
L227735000 100414000
" />
<path d="M179292000 77598000
L179292000 80898000
" />
<path d="M177832000 80898000
L177832000 77598000
" />
<path d="M177832000 77598000
L179292000 77598000
" />
<path d="M179292000 80898000
L177832000 80898000
" />
<path d="M61754000 89155000
L63214000 89155000
" />
<path d="M61754000 92455000
L61754000 89155000
" />
<path d="M63214000 89155000
L63214000 92455000
" />
<path d="M63214000 92455000
L61754000 92455000
" />
<path d="M58833000 88901000
L60293000 88901000
" />
<path d="M58833000 92201000
L58833000 88901000
" />
<path d="M60293000 92201000
L58833000 92201000
" />
<path d="M60293000 88901000
L60293000 92201000
" />
<path d="M84169086 108346538
L86502538 106013086
" />
<path d="M87534914 107045462
L85201462 109378914
" />
<path d="M85201462 109378914
L84169086 108346538
" />
<path d="M86502538 106013086
L87534914 107045462
" />
<path d="M80994086 88376462
L82026462 87344086
" />
<path d="M82026462 87344086
L84359914 89677538
" />
<path d="M83327538 90709914
L80994086 88376462
" />
<path d="M84359914 89677538
L83327538 90709914
" />
<path d="M167720000 84530000
L177720000 84530000
" />
<path d="M167720000 78030000
L167720000 84530000
" />
<path d="M177720000 84530000
L177720000 78030000
" />
<path d="M167720000 78030000
L177720000 78030000
" />
<path d="M41688000 106679000
L41688000 103379000
" />
<path d="M41688000 103379000
L43148000 103379000
" />
<path d="M43148000 103379000
L43148000 106679000
" />
<path d="M43148000 106679000
L41688000 106679000
" />
<path d="M88026538 86264914
L85693086 83931462
" />
<path d="M89058914 85232538
L88026538 86264914
" />
<path d="M86725462 82899086
L89058914 85232538
" />
<path d="M85693086 83931462
L86725462 82899086
" />
<path d="M212361000 121230000
L212361000 117530000
" />
<path d="M220201000 117530000
L220201000 121230000
" />
<path d="M220201000 121230000
L212361000 121230000
" />
<path d="M212361000 117530000
L220201000 117530000
" />
<path d="M151034914 109458462
L148701462 111791914
" />
<path d="M150002538 108426086
L151034914 109458462
" />
<path d="M148701462 111791914
L147669086 110759538
" />
<path d="M147669086 110759538
L150002538 108426086
" />
<path d="M83169462 86201086
L85502914 88534538
" />
<path d="M82137086 87233462
L83169462 86201086
" />
<path d="M85502914 88534538
L84470538 89566914
" />
<path d="M84470538 89566914
L82137086 87233462
" />
<path d="M51102500 108397000
L51102500 110297000
" />
<path d="M47402500 108397000
L51102500 108397000
" />
<path d="M51102500 110297000
L47402500 110297000
" />
<path d="M47402500 110297000
L47402500 108397000
" />
<path d="M58388000 109499500
L56928000 109499500
" />
<path d="M58388000 106199500
L58388000 109499500
" />
<path d="M56928000 109499500
L56928000 106199500
" />
<path d="M56928000 106199500
L58388000 106199500
" />
<path d="M119793000 116712000
L119793000 113412000
" />
<path d="M121253000 116712000
L119793000 116712000
" />
<path d="M121253000 113412000
L121253000 116712000
" />
<path d="M119793000 113412000
L121253000 113412000
" />
<path d="M149815714 105781138
L148783338 106813514
" />
<path d="M148783338 106813514
L146449886 104480062
" />
<path d="M146449886 104480062
L147482262 103447686
" />
<path d="M147482262 103447686
L149815714 105781138
" />
<path d="M104679914 83169462
L102346462 85502914
" />
<path d="M102346462 85502914
L101314086 84470538
" />
<path d="M103647538 82137086
L104679914 83169462
" />
<path d="M101314086 84470538
L103647538 82137086
" />
<path d="M207162000 107540000
L186942000 107540000
" />
<path d="M207162000 83540000
L207162000 88040000
" />
<path d="M218442000 83540000
L207162000 83540000
" />
<path d="M186942000 88040000
L186942000 107540000
" />
<path d="M207162000 107540000
L207162000 112040000
" />
<path d="M186942000 88040000
L207162000 88040000
" />
<path d="M218442000 112040000
L207162000 112040000
" />
<path d="M218442000 83540000
L218442000 112040000
" />
<path d="M91297462 115474914
L90265086 114442538
" />
<path d="M93630914 113141462
L91297462 115474914
" />
<path d="M90265086 114442538
L92598538 112109086
" />
<path d="M92598538 112109086
L93630914 113141462
" />
<path d="M148888286 106918462
L149920662 105886086
" />
<path d="M152254114 108219538
L151221738 109251914
" />
<path d="M149920662 105886086
L152254114 108219538
" />
<path d="M151221738 109251914
L148888286 106918462
" />
<path d="M65969000 105975000
L52569000 105975000
" />
<path d="M65969000 92575000
L65969000 105975000
" />
<path d="M65969000 92575000
L52569000 92575000
" />
<path d="M52569000 92575000
L52569000 105975000
" />
<path d="M107807462 90709914
L106775086 89677538
" />
<path d="M109108538 87344086
L110140914 88376462
" />
<path d="M110140914 88376462
L107807462 90709914
" />
<path d="M106775086 89677538
L109108538 87344086
" />
<path d="M144113086 107076538
L146446538 104743086
" />
<path d="M147478914 105775462
L145145462 108108914
" />
<path d="M146446538 104743086
L147478914 105775462
" />
<path d="M145145462 108108914
L144113086 107076538
" />
<path d="M50070000 107029000
L46770000 107029000
" />
<path d="M50070000 105569000
L50070000 107029000
" />
<path d="M46770000 105569000
L50070000 105569000
" />
<path d="M46770000 107029000
L46770000 105569000
" />
<path d="M178530000 89917000
L178530000 93217000
" />
<path d="M177070000 93217000
L177070000 89917000
" />
<path d="M177070000 89917000
L178530000 89917000
" />
<path d="M178530000 93217000
L177070000 93217000
" />
<path d="M130350000 61495000
L184750000 61495000
" />
<path d="M130350000 55345000
L130350000 61495000
" />
<path d="M184750000 55345000
L130350000 55345000
" />
<path d="M184750000 61495000
L184750000 55345000
" />
<path d="M141957157 98404994
L139552994 100809157
" />
<path d="M142522843 103779006
L144927006 101374843
" />
<path d="M144927006 101374843
L141957157 98404994
" />
<path d="M139552994 100809157
L142522843 103779006
" />
<path d="M47466000 85343000
L46006000 85343000
" />
<path d="M46006000 82043000
L47466000 82043000
" />
<path d="M47466000 82043000
L47466000 85343000
" />
<path d="M46006000 85343000
L46006000 82043000
" />
<path d="M108600538 108362914
L106267086 106029462
" />
<path d="M107299462 104997086
L109632914 107330538
" />
<path d="M109632914 107330538
L108600538 108362914
" />
<path d="M106267086 106029462
L107299462 104997086
" />
<path d="M177928000 85820000
L177928000 84360000
" />
<path d="M177928000 84360000
L181228000 84360000
" />
<path d="M181228000 84360000
L181228000 85820000
" />
<path d="M181228000 85820000
L177928000 85820000
" />
<path d="M207610000 140195000
L183710000 140195000
" />
<path d="M207610000 134095000
L207610000 140195000
" />
<path d="M183710000 134095000
L207610000 134095000
" />
<path d="M183710000 140195000
L183710000 134095000
" />
<path d="M200707000 84530000
L200707000 78030000
" />
<path d="M190707000 78030000
L200707000 78030000
" />
<path d="M190707000 84530000
L200707000 84530000
" />
<path d="M190707000 78030000
L190707000 84530000
" />
<path d="M239159800 90856800
L239159800 94156800
" />
<path d="M237699800 90856800
L239159800 90856800
" />
<path d="M239159800 94156800
L237699800 94156800
" />
<path d="M237699800 94156800
L237699800 90856800
" />
<path d="M89169538 85121914
L86836086 82788462
" />
<path d="M87868462 81756086
L90201914 84089538
" />
<path d="M90201914 84089538
L89169538 85121914
" />
<path d="M86836086 82788462
L87868462 81756086
" />
<path d="M42958000 82043000
L44418000 82043000
" />
<path d="M44418000 85343000
L42958000 85343000
" />
<path d="M44418000 82043000
L44418000 85343000
" />
<path d="M42958000 85343000
L42958000 82043000
" />
<path d="M142619604 97457848
L146225848 93851604
" />
<path d="M140286152 95124396
L142619604 97457848
" />
<path d="M146225848 93851604
L143892396 91518152
" />
<path d="M143892396 91518152
L140286152 95124396
" />
<path d="M173029000 97094000
L176729000 97094000
" />
<path d="M176729000 98994000
L173029000 98994000
" />
<path d="M173029000 98994000
L173029000 97094000
" />
<path d="M176729000 97094000
L176729000 98994000
" />
<path d="M79978086 104155538
L82311538 101822086
" />
<path d="M83343914 102854462
L81010462 105187914
" />
<path d="M81010462 105187914
L79978086 104155538
" />
<path d="M82311538 101822086
L83343914 102854462
" />
<path d="M55721000 92201000
L54261000 92201000
" />
<path d="M55721000 88901000
L55721000 92201000
" />
<path d="M54261000 88901000
L55721000 88901000
" />
<path d="M54261000 92201000
L54261000 88901000
" />
<path d="M69468000 96615000
L66168000 96615000
" />
<path d="M69468000 95155000
L69468000 96615000
" />
<path d="M66168000 95155000
L69468000 95155000
" />
<path d="M66168000 96615000
L66168000 95155000
" />
<path d="M56110000 73617000
L56110000 71417000
" />
<path d="M53110000 71417000
L53110000 73617000
" />
<path d="M56110000 73617000
L53110000 73617000
" />
<path d="M56110000 71417000
L53110000 71417000
" />
<path d="M81812179 99557767
L88282206 106027794
" />
<path d="M97297817 111507872
L96520000 112285689
" />
<path d="M95742183 84072128
L96520000 83294311
" />
<path d="M96520000 83294311
L97297817 84072128
" />
<path d="M88282206 89552206
L94752233 83082179
" />
<path d="M98287767 112497821
L97297817 111507872
" />
<path d="M97297817 84072128
L98287767 83082179
" />
<path d="M110237872 97012183
L111227821 96022233
" />
<path d="M98287767 83082179
L104757794 89552206
" />
<path d="M104757794 106027794
L98287767 112497821
" />
<path d="M104757794 106027794
L111227821 99557767
" />
<path d="M111227821 96022233
L104757794 89552206
" />
<path d="M94752233 112497821
L88282206 106027794
" />
<path d="M111015689 97790000
L110237872 97012183
" />
<path d="M88282206 89552206
L81812179 96022233
" />
<path d="M111227821 99557767
L110237872 98567817
" />
<path d="M82802128 98567817
L81812179 99557767
" />
<path d="M96520000 112285689
L95742183 111507872
" />
<path d="M95742183 111507872
L94752233 112497821
" />
<path d="M94752233 83082179
L95742183 84072128
" />
<path d="M82802128 97012183
L82024311 97790000
" />
<path d="M82024311 97790000
L82802128 98567817
" />
<path d="M81812179 96022233
L82802128 97012183
" />
<path d="M110237872 98567817
L111015689 97790000
" />
<path d="M49150000 98711000
L52450000 98711000
" />
<path d="M49150000 100171000
L49150000 98711000
" />
<path d="M52450000 100171000
L49150000 100171000
" />
<path d="M52450000 98711000
L52450000 100171000
" />
<path d="M82153462 106330914
L81121086 105298538
" />
<path d="M84486914 103997462
L82153462 106330914
" />
<path d="M83454538 102965086
L84486914 103997462
" />
<path d="M81121086 105298538
L83454538 102965086
" />
<path d="M103108462 109188086
L105441914 111521538
" />
<path d="M105441914 111521538
L104409538 112553914
" />
<path d="M102076086 110220462
L103108462 109188086
" />
<path d="M104409538 112553914
L102076086 110220462
" />
<path d="M65017000 88751000
L65017000 92351000
" />
<path d="M73667000 92351000
L73667000 88751000
" />
<path d="M65017000 92351000
L73667000 92351000
" />
<path d="M73667000 88751000
L65017000 88751000
" />
<path d="M167720000 116130000
L167720000 122630000
" />
<path d="M167720000 116130000
L177720000 116130000
" />
<path d="M167720000 122630000
L177720000 122630000
" />
<path d="M177720000 122630000
L177720000 116130000
" />
<path d="M183710000 55355000
L207610000 55355000
" />
<path d="M183710000 61455000
L183710000 55355000
" />
<path d="M207610000 61455000
L183710000 61455000
" />
<path d="M207610000 55355000
L207610000 61455000
" />
<path d="M48134000 93631000
L51434000 93631000
" />
<path d="M48134000 95091000
L48134000 93631000
" />
<path d="M51434000 93631000
L51434000 95091000
" />
<path d="M51434000 95091000
L48134000 95091000
" />
<path d="M105044538 83407086
L106076914 84439462
" />
<path d="M106076914 84439462
L103743462 86772914
" />
<path d="M102711086 85740538
L105044538 83407086
" />
<path d="M103743462 86772914
L102711086 85740538
" />
<path d="M109042295 87207132
L106213868 84378705
" />
<path d="M106638132 89611295
L109042295 87207132
" />
<path d="M103809705 86782868
L106638132 89611295
" />
<path d="M106213868 84378705
L103809705 86782868
" />
<path d="M179292000 80900000
L179292000 84200000
" />
<path d="M179292000 84200000
L177832000 84200000
" />
<path d="M177832000 80900000
L179292000 80900000
" />
<path d="M177832000 84200000
L177832000 80900000
" />
<path d="M212947000 125604000
L212947000 128904000
" />
<path d="M212947000 128904000
L211487000 128904000
" />
<path d="M211487000 128904000
L211487000 125604000
" />
<path d="M211487000 125604000
L212947000 125604000
" />
<path d="M69468000 98266000
L66168000 98266000
" />
<path d="M69468000 96806000
L69468000 98266000
" />
<path d="M66168000 96806000
L69468000 96806000
" />
<path d="M66168000 98266000
L66168000 96806000
" />
<path d="M147037157 111145006
L150007006 108175157
" />
<path d="M144632994 108740843
L147037157 111145006
" />
<path d="M147602843 105770994
L144632994 108740843
" />
<path d="M150007006 108175157
L147602843 105770994
" />
<path d="M113384000 104792000
L119534000 104792000
" />
<path d="M119534000 91042000
L113384000 91042000
" />
<path d="M119534000 104792000
L119534000 91042000
" />
<path d="M113384000 91042000
L113384000 104792000
" />
<path d="M61700000 134085000
L61700000 140235000
" />
<path d="M131350000 140235000
L131350000 134085000
" />
<path d="M61700000 140235000
L131350000 140235000
" />
<path d="M131350000 134085000
L61700000 134085000
" />
<path d="M45648000 93406000
L45648000 91506000
" />
<path d="M49348000 93406000
L45648000 93406000
" />
<path d="M49348000 91506000
L49348000 93406000
" />
<path d="M45648000 91506000
L49348000 91506000
" />
<path d="M216917000 114205000
L220217000 114205000
" />
<path d="M220217000 114205000
L220217000 115665000
" />
<path d="M220217000 115665000
L216917000 115665000
" />
<path d="M216917000 115665000
L216917000 114205000
" />
<path d="M178530000 102871000
L178530000 106171000
" />
<path d="M178530000 106171000
L177070000 106171000
" />
<path d="M177070000 102871000
L178530000 102871000
" />
<path d="M177070000 106171000
L177070000 102871000
" />
<path d="M50106000 102386000
L46706000 102386000
" />
<path d="M46706000 105386000
L50106000 105386000
" />
<path d="M46706000 102386000
L46706000 105386000
" />
<path d="M50106000 105386000
L50106000 102386000
" />
<path d="M109696086 93106538
L112029538 90773086
" />
<path d="M113061914 91805462
L110728462 94138914
" />
<path d="M110728462 94138914
L109696086 93106538
" />
<path d="M112029538 90773086
L113061914 91805462
" />
<path d="M141319086 105095338
L143652538 102761886
" />
<path d="M143652538 102761886
L144684914 103794262
" />
<path d="M142351462 106127714
L141319086 105095338
" />
<path d="M144684914 103794262
L142351462 106127714
" />
<path d="M137255086 97678538
L139588538 95345086
" />
<path d="M138287462 98710914
L137255086 97678538
" />
<path d="M139588538 95345086
L140620914 96377462
" />
<path d="M140620914 96377462
L138287462 98710914
" />
<path d="M38640000 103379000
L40100000 103379000
" />
<path d="M38640000 106679000
L38640000 103379000
" />
<path d="M40100000 103379000
L40100000 106679000
" />
<path d="M40100000 106679000
L38640000 106679000
" />
<path d="M236188000 90806000
L236188000 94106000
" />
<path d="M236188000 94106000
L234728000 94106000
" />
<path d="M234728000 90806000
L236188000 90806000
" />
<path d="M234728000 94106000
L234728000 90806000
" />
<path d="M231966000 94502000
L241386000 94502000
" />
<path d="M241386000 105142000
L241386000 94502000
" />
<path d="M231966000 105142000
L231966000 94502000
" />
<path d="M231966000 105142000
L241386000 105142000
" />
<path d="M120363000 100855000
L125763000 100855000
" />
<path d="M125763000 93455000
L120363000 93455000
" />
<path d="M125763000 100855000
L125763000 93455000
" />
<path d="M120363000 93455000
L120363000 100855000
" />
<path d="M176850000 96973000
L176850000 93273000
" />
<path d="M176850000 93273000
L178750000 93273000
" />
<path d="M178750000 96973000
L176850000 96973000
" />
<path d="M178750000 93273000
L178750000 96973000
" />
<path d="M57309000 88901000
L58769000 88901000
" />
<path d="M58769000 92201000
L57309000 92201000
" />
<path d="M57309000 92201000
L57309000 88901000
" />
<path d="M58769000 88901000
L58769000 92201000
" />
<path d="M58792000 66303000
L58792000 70603000
" />
<path d="M58792000 70603000
L54492000 70603000
" />
<path d="M54492000 70603000
L54492000 66303000
" />
<path d="M54492000 66303000
L58792000 66303000
" />
<path d="M44482000 82043000
L45942000 82043000
" />
<path d="M44482000 85343000
L44482000 82043000
" />
<path d="M45942000 82043000
L45942000 85343000
" />
<path d="M45942000 85343000
L44482000 85343000
" />
<path d="M90947538 110458086
L91979914 111490462
" />
<path d="M89646462 113823914
L88614086 112791538
" />
<path d="M88614086 112791538
L90947538 110458086
" />
<path d="M91979914 111490462
L89646462 113823914
" />
<path d="M40164000 103379000
L41624000 103379000
" />
<path d="M40164000 106679000
L40164000 103379000
" />
<path d="M41624000 106679000
L40164000 106679000
" />
<path d="M41624000 103379000
L41624000 106679000
" />
<path d="M62389000 106173000
L63849000 106173000
" />
<path d="M63849000 109473000
L62389000 109473000
" />
<path d="M63849000 106173000
L63849000 109473000
" />
<path d="M62389000 109473000
L62389000 106173000
" />
<path d="M184750000 140235000
L184750000 134085000
" />
<path d="M130350000 140235000
L184750000 140235000
" />
<path d="M184750000 134085000
L130350000 134085000
" />
<path d="M130350000 134085000
L130350000 140235000
" />
<path d="M231451400 90780600
L232911400 90780600
" />
<path d="M232911400 94080600
L231451400 94080600
" />
<path d="M232911400 90780600
L232911400 94080600
" />
<path d="M231451400 94080600
L231451400 90780600
" />
<path d="M61695000 61495000
L131345000 61495000
" />
<path d="M61695000 55345000
L61695000 61495000
" />
<path d="M131345000 61495000
L131345000 55345000
" />
<path d="M131345000 55345000
L61695000 55345000
" />
<path d="M45548000 103110000
L36128000 103110000
" />
<path d="M36128000 92470000
L36128000 103110000
" />
<path d="M45548000 92470000
L36128000 92470000
" />
<path d="M45548000 92470000
L45548000 103110000
" />
<path d="M212581000 122627000
L204741000 122627000
" />
<path d="M204741000 122627000
L204741000 118927000
" />
<path d="M204741000 118927000
L212581000 118927000
" />
<path d="M212581000 118927000
L212581000 122627000
" />
<path d="M53499000 106173000
L54959000 106173000
" />
<path d="M54959000 106173000
L54959000 109473000
" />
<path d="M53499000 109473000
L53499000 106173000
" />
<path d="M54959000 109473000
L53499000 109473000
" />
<path d="M62325000 109473000
L60865000 109473000
" />
<path d="M60865000 109473000
L60865000 106173000
" />
<path d="M62325000 106173000
L62325000 109473000
" />
<path d="M60865000 106173000
L62325000 106173000
" />
<path d="M220288000 113742000
L220288000 132892000
" />
<path d="M243008000 132892000
L243008000 113742000
" />
<path d="M220288000 132892000
L243008000 132892000
" />
<path d="M243008000 113742000
L220288000 113742000
" />
<path d="M69468000 101822000
L66168000 101822000
" />
<path d="M66168000 101822000
L66168000 100362000
" />
<path d="M69468000 100362000
L69468000 101822000
" />
<path d="M66168000 100362000
L69468000 100362000
" />
<path d="M87645538 107156086
L88677914 108188462
" />
<path d="M86344462 110521914
L85312086 109489538
" />
<path d="M88677914 108188462
L86344462 110521914
" />
<path d="M85312086 109489538
L87645538 107156086
" />
<path d="M51704000 102047000
L51704000 105347000
" />
<path d="M50244000 105347000
L50244000 102047000
" />
<path d="M51704000 105347000
L50244000 105347000
" />
<path d="M50244000 102047000
L51704000 102047000
" />
<path d="M216393000 115736000
L220233000 115736000
" />
<path d="M220233000 117436000
L216393000 117436000
" />
<path d="M220233000 115736000
L220233000 117436000
" />
<path d="M216393000 117436000
L216393000 115736000
" />
<path d="M137240000 78030000
L137240000 84530000
" />
<path d="M147240000 84530000
L147240000 78030000
" />
<path d="M137240000 78030000
L147240000 78030000
" />
<path d="M137240000 84530000
L147240000 84530000
" />
<path d="M52580000 65340000
L49050000 65340000
" />
<path d="M37620000 65340000
L45150000 65340000
" />
<path d="M36320000 64690000
L37620000 64690000
" />
<path d="M37620000 64690000
L37620000 65340000
" />
<path d="M52580000 65340000
L52580000 79440000
" />
<path d="M36320000 80090000
L37620000 80090000
" />
<path d="M52580000 79440000
L49050000 79440000
" />
<path d="M36320000 64690000
L36320000 80090000
" />
<path d="M37620000 79440000
L45150000 79440000
" />
<path d="M37620000 80090000
L37620000 79440000
" />
<path d="M45150000.152004 79439999.962584 A2008208.000000 2008208.000000 0.0 0 0 49049999.847996 79439999.962584" />
<path d="M49049999.847996 65340000.037416 A2008208.000000 2008208.000000 0.0 0 0 45150000.152004 65340000.037416" />
<path d="M144840662 103638514
L143808286 102606138
" />
<path d="M143808286 102606138
L146141738 100272686
" />
<path d="M146141738 100272686
L147174114 101305062
" />
<path d="M147174114 101305062
L144840662 103638514
" />
<path d="M219678000 126872000
L218218000 126872000
" />
<path d="M219678000 123572000
L219678000 126872000
" />
<path d="M218218000 123572000
L219678000 123572000
" />
<path d="M218218000 126872000
L218218000 123572000
" />
<path d="M178750000 99115000
L178750000 102815000
" />
<path d="M176850000 102815000
L176850000 99115000
" />
<path d="M176850000 99115000
L178750000 99115000
" />
<path d="M178750000 102815000
L176850000 102815000
" />
<path d="M45890000 96690000
L48890000 96690000
" />
<path d="M48890000 98890000
L48890000 96690000
" />
<path d="M45890000 98890000
L48890000 98890000
" />
<path d="M45890000 96690000
L45890000 98890000
" />
<path d="M48134000 96615000
L48134000 95155000
" />
<path d="M48134000 95155000
L51434000 95155000
" />
<path d="M51434000 96615000
L48134000 96615000
" />
<path d="M51434000 95155000
L51434000 96615000
" />
<path d="M85740538 88296914
L83407086 85963462
" />
<path d="M86772914 87264538
L85740538 88296914
" />
<path d="M83407086 85963462
L84439462 84931086
" />
<path d="M84439462 84931086
L86772914 87264538
" />
<path d="M182627000 97314000
L185927000 97314000
" />
<path d="M185927000 98774000
L182627000 98774000
" />
<path d="M185927000 97314000
L185927000 98774000
" />
<path d="M182627000 98774000
L182627000 97314000
" />
<path d="M47219500 110077000
L43919500 110077000
" />
<path d="M43919500 110077000
L43919500 108617000
" />
<path d="M47219500 108617000
L47219500 110077000
" />
<path d="M43919500 108617000
L47219500 108617000
" />
<path d="M142449714 103825338
L141417338 104857714
" />
<path d="M139083886 102524262
L140116262 101491886
" />
<path d="M141417338 104857714
L139083886 102524262
" />
<path d="M140116262 101491886
L142449714 103825338
" />
<path d="M182427000 117790000
L182427000 115890000
" />
<path d="M186127000 117790000
L182427000 117790000
" />
<path d="M182427000 115890000
L186127000 115890000
" />
<path d="M186127000 115890000
L186127000 117790000
" />
<path d="M103266538 113696914
L100933086 111363462
" />
<path d="M104298914 112664538
L103266538 113696914
" />
<path d="M101965462 110331086
L104298914 112664538
" />
<path d="M100933086 111363462
L101965462 110331086
" />
<path d="M167132008 98391041
L167733048 97790000
" />
<path d="M158081041 88137992
L159120488 87098545
" />
<path d="M155839512 108481455
L151314029 103955971
" />
<path d="M147827992 98391041
L146788545 99430488
" />
<path d="M159120488 108481455
L158081041 107442008
" />
<path d="M155839512 87098545
L156878959 88137992
" />
<path d="M158081041 107442008
L157480000 108043048
" />
<path d="M163645971 103955971
L168171455 99430488
" />
<path d="M146788545 99430488
L151314029 103955971
" />
<path d="M163645971 103955971
L159120488 108481455
" />
<path d="M168171455 99430488
L167132008 98391041
" />
<path d="M167132008 97188959
L168171455 96149512
" />
<path d="M156878959 88137992
L157480000 87536952
" />
<path d="M151314029 91624029
L155839512 87098545
" />
<path d="M147827992 97188959
L147226952 97790000
" />
<path d="M156878959 107442008
L155839512 108481455
" />
<path d="M151314029 91624029
L146788545 96149512
" />
<path d="M159120488 87098545
L163645971 91624029
" />
<path d="M146788545 96149512
L147827992 97188959
" />
<path d="M168171455 96149512
L163645971 91624029
" />
<path d="M147226952 97790000
L147827992 98391041
" />
<path d="M157480000 108043048
L156878959 107442008
" />
<path d="M157480000 87536952
L158081041 88137992
" />
<path d="M167733048 97790000
L167132008 97188959
" />
<path d="M111156914 105806538
L110124538 106838914
" />
<path d="M110124538 106838914
L107791086 104505462
" />
<path d="M107791086 104505462
L108823462 103473086
" />
<path d="M108823462 103473086
L111156914 105806538
" />
<path d="M57245000 92201000
L55785000 92201000
" />
<path d="M55785000 92201000
L55785000 88901000
" />
<path d="M55785000 88901000
L57245000 88901000
" />
<path d="M57245000 88901000
L57245000 92201000
" />
<path d="M99155086 82438538
L101488538 80105086
" />
<path d="M101488538 80105086
L102520914 81137462
" />
<path d="M102520914 81137462
L100187462 83470914
" />
<path d="M100187462 83470914
L99155086 82438538
" />
<path d="M52737000 92201000
L52737000 88901000
" />
<path d="M54197000 88901000
L54197000 92201000
" />
<path d="M52737000 88901000
L54197000 88901000
" />
<path d="M54197000 92201000
L52737000 92201000
" />
<path d="M190580000 116130000
L190580000 122630000
" />
<path d="M200580000 122630000
L200580000 116130000
" />
<path d="M190580000 116130000
L200580000 116130000
" />
<path d="M190580000 122630000
L200580000 122630000
" />
<path d="M52864000 68198000
L52864000 64898000
" />
<path d="M54324000 64898000
L54324000 68198000
" />
<path d="M54324000 68198000
L52864000 68198000
" />
<path d="M52864000 64898000
L54324000 64898000
" />
<path d="M103219086 109077462
L104251462 108045086
" />
<path d="M104251462 108045086
L106584914 110378538
" />
<path d="M106584914 110378538
L105552538 111410914
" />
<path d="M105552538 111410914
L103219086 109077462
" />
<path d="M182571000 97094000
L182571000 98994000
" />
<path d="M178871000 97094000
L182571000 97094000
" />
<path d="M178871000 98994000
L178871000 97094000
" />
<path d="M182571000 98994000
L178871000 98994000
" />
<path d="M51975000 106173000
L53435000 106173000
" />
<path d="M51975000 109473000
L51975000 106173000
" />
<path d="M53435000 106173000
L53435000 109473000
" />
<path d="M53435000 109473000
L51975000 109473000
" />
<path d="M132693000 129060000
L143893000 129060000
" />
<path d="M143893000 132610000
L132693000 132610000
" />
<path d="M132693000 132610000
L132693000 129060000
" />
<path d="M143893000 129060000
L143893000 132610000
" />
<path d="M169673000 97187000
L172973000 97187000
" />
<path d="M172973000 97187000
L172973000 98647000
" />
<path d="M172973000 98647000
L169673000 98647000
" />
<path d="M169673000 98647000
L169673000 97187000
" />
<g >
</g>
<g >
</g>
<g >
</g>
<g >
</g>
<g >
</g>
<g >
</g>
<g >
</g>
<g >
</g>
<g >
</g>
<g >
</g>
<g >
</g>
<g >
</g>
<g >
</g>
<g >
</g>
<g >
</g>
<g >
</g>
<g >
</g>
<g >
</g>
<g >
</g>
<g >
</g>
<g >
</g>
<g >
</g>
<g >
</g>
<g >
</g>
<g >
</g>
<g >
</g>
<g >
</g>
<g >
</g>
<g >
</g>
<g >
</g>
<g >
</g>
<g >
</g>
<g >
</g>
<g >
</g>
<g >
</g>
<g >
</g>
<g >
</g>
<g >
</g>
<g >
</g>
<g >
</g>
<g >
</g>
<g >
</g>
<g >
</g>
<g >
</g>
<g >
</g>
<g >
</g>
<g >
</g>
<g >
</g>
<g >
</g>
<g >
</g>
<g >
</g>
<g >
</g>
<g >
</g>
<g >
</g>
<g >
</g>
<g >
</g>
<g >
</g>
<g >
</g>
<g >
</g>
<g >
</g>
<g >
</g>
<g >
</g>
<g >
</g>
<g >
</g>
<g >
</g>
<g >
</g>
<g >
</g>
<g >
</g>
<g >
</g>
<g >
</g>
<g >
</g>
<g >
</g>
<g >
</g>
<g >
</g>
<g >
</g>
<g >
</g>
<g >
</g>
<g >
</g>
<g >
</g>
<g >
</g>
<g >
</g>
<g >
</g>
<g >
</g>
<g >
</g>
<g >
</g>
<g >
</g>
<g >
</g>
<g >
</g>
<g >
</g>
<g >
</g>
<g >
</g>
<g >
</g>
<g >
</g>
<g >
</g>
<g >
</g>
<g >
</g>
<g >
</g>
<g >
</g>
<g >
</g>
<g >
</g>
<g >
</g>
<g >
</g>
<g >
</g>
<g >
</g>
<g >
</g>
<g >
</g>
<g >
</g>
<g >
</g>
<g >
</g>
<g >
</g>
<g >
</g>
<g >
</g>
<g >
</g>
<g >
</g>
<g >
</g>
<g >
</g>
<g >
</g>
<g >
</g>
<g >
</g>
<g >
</g>
<g >
</g>
<g >
</g>
<g >
</g>
<g >
</g>
<g >
</g>
<g >
</g>
<g >
</g>
<g >
</g>
<g >
</g>
<g >
</g>
<g >
</g>
<g >
</g>
<g >
</g>
<g >
</g>
<g >
</g>
<g >
</g>
<g >
</g>
<g >
</g>
<g >
</g>
<g >
</g>
<g >
</g>
<g >
</g>
<g >
</g>
<g >
</g>
<g >
</g>
<g >
</g>
<g >
</g>
<g >
</g>
<g >
</g>
<g >
</g>
<g >
</g>
<g >
</g>
<g >
</g>
<g >
</g>
<g >
</g>
<g >
</g>
<g >
</g>
<g >
</g>
<g >
</g>
<g >
</g>
<g >
</g>
<g >
</g>
<g >
</g>
<g >
</g>
<g >
</g>
<g >
</g>
<g >
</g>
<g >
</g>
<g >
</g>
<g >
</g>
<g >
</g>
<g >
</g>
<g >
</g>
<g >
</g>
<g >
</g>
<g >
</g>
<g >
</g>
<g >
</g>
<g >
</g>
<g >
</g>
<g >
</g>
<g >
</g>
<g >
</g>
<g >
</g>
<g >
</g>
<g >
</g>
<g >
</g>
<g >
</g>
<g >
</g>
<g >
</g>
<g >
</g>
<g >
</g>
<g >
</g>
<g >
</g>
<g >
</g>
<g >
</g>
<g >
</g>
<g >
</g>
<g >
</g>
<g >
</g>
<g >
</g>
<g >
</g>
<g >
</g>
<g >
</g>
<g >
</g>
<g >
</g>
<g >
</g>
<g >
</g>
<g >
</g>
<g >
</g>
<g >
</g>
<g >
</g>
<g >
</g>
<g >
</g>
<g >
</g>
<g >
</g>
<g >
</g>
<g >
</g>
<g >
</g>
<g >
</g>
<g >
</g>
<g >
</g>
<g >
</g>
<g >
</g>
<g >
</g>
<g >
</g>
<g >
</g>
<g >
</g>
<g >
</g>
<g >
</g>
<g >
</g>
<g >
</g>
<g >
</g>
<g >
</g>
<g >
</g>
<g >
</g>
<g >
</g>
<g >
</g>
<g >
</g>
<g >
</g>
<g >
</g>
<g >
</g>
<g >
</g>
<g >
</g>
<g >
</g>
<g >
</g>
<g >
</g>
<g >
</g>
<g >
</g>
<g >
</g>
<g >
</g>
<g >
</g>
<g >
</g>
<g >
</g>
<g >
</g>
<g >
</g>
<g >
</g>
<g >
</g>
<g >
</g>
<g >
</g>
<g >
</g>
<g >
</g>
<g >
</g>
<g >
</g>
<g >
</g>
<g >
</g>
<g >
</g>
<g >
</g>
<g >
</g>
<g >
</g>
<g >
</g>
<g >
</g>
<g >
</g>
<g >
</g>
<g >
</g>
<g >
</g>
<g >
</g>
<g >
</g>
<g >
</g>
<g >
</g>
<g >
</g>
<g >
</g>
<g >
</g>
<g >
</g>
<g >
</g>
<g >
</g>
<g >
</g>
<g >
</g>
<g >
</g>
<g >
</g>
<g >
</g>
<g >
</g>
<g >
</g>
<g >
</g>
<g >
</g>
<g >
</g>
<g >
</g>
<g >
</g>
<g >
</g>
<g >
</g>
<g >
</g>
<g >
</g>
<g >
</g>
<g >
</g>
<g >
</g>
<g >
</g>
<g >
</g>
<g >
</g>
<g >
</g>
<g >
</g>
<g >
</g>
<g >
</g>
<g >
</g>
<g >
</g>
<g >
</g>
<g >
</g>
<g >
</g>
</g>
<g style="fill:#000000; fill-opacity:0.0; 
stroke:#000000; stroke-width:50000.000000; stroke-opacity:1; 
stroke-linecap:round; stroke-linejoin:round;">
<g >
</g>
<g >
</g>
<g >
</g>
<g >
</g>
<g >
</g>
<g >
</g>
<g >
</g>
<g >
</g>
<g >
</g>
<g >
</g>
<g >
</g>
<g >
</g>
<g >
</g>
<g >
</g>
<g >
</g>
<g >
</g>
<g >
</g>
<g >
</g>
<g >
</g>
<g >
</g>
<g >
</g>
<g >
</g>
<g >
</g>
<g >
</g>
<g >
</g>
<g >
</g>
<g >
</g>
<g >
</g>
<g >
</g>
<g >
</g>
<g >
</g>
<g >
</g>
<g >
</g>
<g >
</g>
<g >
</g>
<g >
</g>
<g >
</g>
<g >
</g>
<g >
</g>
<g >
</g>
<g >
</g>
<g >
</g>
<g >
</g>
<g >
</g>
<g >
</g>
<g >
</g>
<g >
</g>
<g >
</g>
<g >
</g>
<g >
</g>
<g >
</g>
<g >
</g>
<g >
</g>
<g >
</g>
<g >
</g>
<g >
</g>
<g >
</g>
<g >
</g>
<g >
</g>
<g >
</g>
<g >
</g>
<g >
</g>
<g >
</g>
<g >
</g>
<g >
</g>
<g >
</g>
<g >
</g>
<g >
</g>
<g >
</g>
<g >
</g>
<g >
</g>
<g >
</g>
<g >
</g>
<g >
</g>
<g >
</g>
<g >
</g>
<g >
</g>
<g >
</g>
<g >
</g>
<g >
</g>
<g >
</g>
<g >
</g>
<g >
</g>
<g >
</g>
<g >
</g>
<g >
</g>
<g >
</g>
<g >
</g>
<g >
</g>
<g >
</g>
<g >
</g>
<g >
</g>
<g >
</g>
<g >
</g>
<g >
</g>
<g >
</g>
<g >
</g>
<g >
</g>
<g >
</g>
<g >
</g>
<g >
</g>
<g >
</g>
<g >
</g>
<g >
</g>
<g >
</g>
<g >
</g>
<g >
</g>
<g >
</g>
<g >
</g>
<g >
</g>
<g >
</g>
<g >
</g>
<g >
</g>
<g >
</g>
<g >
</g>
<g >
</g>
<g >
</g>
<g >
</g>
<g >
</g>
<g >
</g>
<g >
</g>
<g >
</g>
<g >
</g>
<g >
</g>
<g >
</g>
<g >
</g>
<g >
</g>
<g >
</g>
<g >
</g>
<g >
</g>
<g >
</g>
<g >
</g>
<g >
</g>
<g >
</g>
<g >
</g>
<g >
</g>
<g >
</g>
<g >
</g>
<g >
</g>
<g >
</g>
<g >
</g>
<g >
</g>
<g >
</g>
<g >
</g>
<g >
</g>
<g >
</g>
<g >
</g>
<g >
</g>
<g >
</g>
<g >
</g>
<g >
</g>
<g >
</g>
<g >
</g>
<g >
</g>
<g >
</g>
<g >
</g>
<g >
</g>
<g >
</g>
<g >
</g>
<g >
</g>
<g >
</g>
<g >
</g>
<g >
</g>
<g >
</g>
<g >
</g>
<g >
</g>
<g >
</g>
<g >
</g>
<g >
</g>
<g >
</g>
<g >
</g>
<g >
</g>
<g >
</g>
<g >
</g>
<g >
</g>
<g >
</g>
<g >
</g>
<g >
</g>
<g >
</g>
<g >
</g>
<g >
</g>
<g >
</g>
<g >
</g>
<g >
</g>
<g >
</g>
<g >
</g>
<g >
</g>
<g >
</g>
<g >
</g>
<g >
</g>
<g >
</g>
<g >
</g>
<g >
</g>
<g >
</g>
<g >
</g>
<g >
</g>
<g >
</g>
<g >
</g>
<g >
</g>
<g >
</g>
<g >
</g>
<g >
</g>
<g >
</g>
<g >
</g>
<g >
</g>
<g >
</g>
<g >
</g>
<g >
</g>
<g >
</g>
<g >
</g>
<g >
</g>
<g >
</g>
<g >
</g>
<g >
</g>
<g >
</g>
<g >
</g>
<g >
</g>
<g >
</g>
<g >
</g>
<g >
</g>
<g >
</g>
<g >
</g>
<g >
</g>
<g >
</g>
<g >
</g>
<g >
</g>
<g >
</g>
<g >
</g>
<g >
</g>
<g >
</g>
<g >
</g>
<g >
</g>
<g >
</g>
<g >
</g>
<g >
</g>
<g >
</g>
<g >
</g>
<g >
</g>
<g >
</g>
<g >
</g>
<g >
</g>
<g >
</g>
<g >
</g>
<g >
</g>
<g >
</g>
<g >
</g>
<g >
</g>
<g >
</g>
<g >
</g>
<g >
</g>
<g >
</g>
<g >
</g>
<g >
</g>
<g >
</g>
<g >
</g>
<g >
</g>
<g >
</g>
<g >
</g>
<g >
</g>
<g >
</g>
<g >
</g>
<g >
</g>
<g >
</g>
<g >
</g>
<g >
</g>
<g >
</g>
<g >
</g>
<g >
</g>
<g >
</g>
<g >
</g>
<g >
</g>
<g >
</g>
<g >
</g>
<g >
</g>
<g >
</g>
<g >
</g>
<g >
</g>
<g >
</g>
<g >
</g>
<g >
</g>
<g >
</g>
<g >
</g>
<g >
</g>
<g >
</g>
<g >
</g>
<g >
</g>
<g >
</g>
<g >
</g>
<g >
</g>
<g >
</g>
<g >
</g>
<g >
</g>
<g >
</g>
<g >
</g>
<g >
</g>
<g >
</g>
<g >
</g>
<g >
</g>
<g >
</g>
<g >
</g>
<g >
</g>
<g >
</g>
<g >
</g>
<g >
</g>
<g >
</g>
<g >
</g>
<g >
</g>
<g >
</g>
<g >
</g>
<g >
</g>
<g >
</g>
<g >
</g>
<g >
</g>
<g >
</g>
<g >
</g>
<g >
</g>
<g >
</g>
</g> 
</svg>
