<?xml version="1.0" standalone="no"?>
 <!DOCTYPE svg PUBLIC "-//W3C//DTD SVG 1.1//EN" 
 "http://www.w3.org/Graphics/SVG/1.1/DTD/svg11.dtd"> 
<svg
  xmlns:svg="http://www.w3.org/2000/svg"
  xmlns="http://www.w3.org/2000/svg"
  xmlns:xlink="http://www.w3.org/1999/xlink"
  version="1.1"
  width="118.899940cm" height="84.099400cm" viewBox="0 0 1188999400 840994000">
<title>SVG Picture created as project-User_Comments.svg date 2022/02/16 18:46:07 </title>
  <desc>Picture generated by PCBNEW </desc>
<g style="fill:#000000; fill-opacity:1.000000;stroke:#000000; stroke-opacity:1.000000;
stroke-linecap:round; stroke-linejoin:round;"
 transform="translate(0 0) scale(1 1)">
</g>
<g style="fill:#000000; fill-opacity:0.0; 
stroke:#000000; stroke-width:0.000000; stroke-opacity:1; 
stroke-linecap:round; stroke-linejoin:round;">
</g>
<g style="fill:#5994DC; fill-opacity:0.0; 
stroke:#5994DC; stroke-width:0.000000; stroke-opacity:1; 
stroke-linecap:round; stroke-linejoin:round;">
</g>
<g style="fill:#5994DC; fill-opacity:0.0; 
stroke:#5994DC; stroke-width:100000.000000; stroke-opacity:1; 
stroke-linecap:round; stroke-linejoin:round;">
<g transform="rotate(-90.000000 211817000.000000 86590000.000000)">
<text x="211817000.000000" y="86840000.000000"
textLength="2385476.000000" font-size="666666.000000" lengthAdjust="spacingAndGlyphs"
text-anchor="middle" opacity="0">5 mm</text>
</g>
<g class="stroked-text"><desc>5 mm</desc>
<path d="M211543190 87328095
L211543190 87566190
L211781285 87590000
L211757476 87566190
L211733666 87518571
L211733666 87399523
L211757476 87351904
L211781285 87328095
L211828904 87304285
L211947952 87304285
L211995571 87328095
L212019380 87351904
L212043190 87399523
L212043190 87518571
L212019380 87566190
L211995571 87590000
" />
<path d="M212043190 86709047
L211709857 86709047
" />
<path d="M211757476 86709047
L211733666 86685238
L211709857 86637619
L211709857 86566190
L211733666 86518571
L211781285 86494761
L212043190 86494761
" />
<path d="M211781285 86494761
L211733666 86470952
L211709857 86423333
L211709857 86351904
L211733666 86304285
L211781285 86280476
L212043190 86280476
" />
<path d="M212043190 86042380
L211709857 86042380
" />
<path d="M211757476 86042380
L211733666 86018571
L211709857 85970952
L211709857 85899523
L211733666 85851904
L211781285 85828095
L212043190 85828095
" />
<path d="M211781285 85828095
L211733666 85804285
L211709857 85756666
L211709857 85685238
L211733666 85637619
L211781285 85613809
L212043190 85613809
" />
</g></g>
<g style="fill:#5994DC; fill-opacity:0.0; 
stroke:#5994DC; stroke-width:150000.000000; stroke-opacity:1; 
stroke-linecap:round; stroke-linejoin:round;">
<g transform="rotate(-90.000000 210442000.000000 97790000.000000)">
<text x="210442000.000000" y="98290000.000000"
textLength="6034762.000000" font-size="1333333.000000" lengthAdjust="spacingAndGlyphs"
text-anchor="middle" opacity="0">Antenna</text>
</g>
<g class="stroked-text"><desc>Antenna</desc>
<path d="M210608666 100551904
L210608666 100075714
" />
<path d="M210894380 100647142
L209894380 100313809
L210894380 99980476
" />
<path d="M210227714 99647142
L210894380 99647142
" />
<path d="M210322952 99647142
L210275333 99599523
L210227714 99504285
L210227714 99361428
L210275333 99266190
L210370571 99218571
L210894380 99218571
" />
<path d="M210227714 98885238
L210227714 98504285
" />
<path d="M209894380 98742380
L210751523 98742380
L210846761 98694761
L210894380 98599523
L210894380 98504285
" />
<path d="M210846761 97790000
L210894380 97885238
L210894380 98075714
L210846761 98170952
L210751523 98218571
L210370571 98218571
L210275333 98170952
L210227714 98075714
L210227714 97885238
L210275333 97790000
L210370571 97742380
L210465809 97742380
L210561047 98218571
" />
<path d="M210227714 97313809
L210894380 97313809
" />
<path d="M210322952 97313809
L210275333 97266190
L210227714 97170952
L210227714 97028095
L210275333 96932857
L210370571 96885238
L210894380 96885238
" />
<path d="M210227714 96409047
L210894380 96409047
" />
<path d="M210322952 96409047
L210275333 96361428
L210227714 96266190
L210227714 96123333
L210275333 96028095
L210370571 95980476
L210894380 95980476
" />
<path d="M210894380 95075714
L210370571 95075714
L210275333 95123333
L210227714 95218571
L210227714 95409047
L210275333 95504285
" />
<path d="M210846761 95075714
L210894380 95170952
L210894380 95409047
L210846761 95504285
L210751523 95551904
L210656285 95551904
L210561047 95504285
L210513428 95409047
L210513428 95170952
L210465809 95075714
" />
</g><g transform="rotate(-90.000000 216442000.000000 97790000.000000)">
<text x="216442000.000000" y="98290000.000000"
textLength="12814048.000000" font-size="1333333.000000" lengthAdjust="spacingAndGlyphs"
text-anchor="middle" opacity="0">KEEP-OUT ZONE</text>
</g>
<g class="stroked-text"><desc>KEEP-OUT ZONE</desc>
<path d="M216894380 103861428
L215894380 103861428
" />
<path d="M216894380 103290000
L216322952 103718571
" />
<path d="M215894380 103290000
L216465809 103861428
" />
<path d="M216370571 102861428
L216370571 102528095
" />
<path d="M216894380 102385238
L216894380 102861428
L215894380 102861428
L215894380 102385238
" />
<path d="M216370571 101956666
L216370571 101623333
" />
<path d="M216894380 101480476
L216894380 101956666
L215894380 101956666
L215894380 101480476
" />
<path d="M216894380 101051904
L215894380 101051904
L215894380 100670952
L215942000 100575714
L215989619 100528095
L216084857 100480476
L216227714 100480476
L216322952 100528095
L216370571 100575714
L216418190 100670952
L216418190 101051904
" />
<path d="M216513428 100051904
L216513428 99290000
" />
<path d="M215894380 98623333
L215894380 98432857
L215942000 98337619
L216037238 98242380
L216227714 98194761
L216561047 98194761
L216751523 98242380
L216846761 98337619
L216894380 98432857
L216894380 98623333
L216846761 98718571
L216751523 98813809
L216561047 98861428
L216227714 98861428
L216037238 98813809
L215942000 98718571
L215894380 98623333
" />
<path d="M215894380 97766190
L216703904 97766190
L216799142 97718571
L216846761 97670952
L216894380 97575714
L216894380 97385238
L216846761 97290000
L216799142 97242380
L216703904 97194761
L215894380 97194761
" />
<path d="M215894380 96861428
L215894380 96290000
" />
<path d="M216894380 96575714
L215894380 96575714
" />
<path d="M215894380 95290000
L215894380 94623333
L216894380 95290000
L216894380 94623333
" />
<path d="M215894380 94051904
L215894380 93861428
L215942000 93766190
L216037238 93670952
L216227714 93623333
L216561047 93623333
L216751523 93670952
L216846761 93766190
L216894380 93861428
L216894380 94051904
L216846761 94147142
L216751523 94242380
L216561047 94290000
L216227714 94290000
L216037238 94242380
L215942000 94147142
L215894380 94051904
" />
<path d="M216894380 93194761
L215894380 93194761
L216894380 92623333
L215894380 92623333
" />
<path d="M216370571 92147142
L216370571 91813809
" />
<path d="M216894380 91670952
L216894380 92147142
L215894380 92147142
L215894380 91670952
" />
</g></g>
<g style="fill:#5994DC; fill-opacity:0.0; 
stroke:#5994DC; stroke-width:100000.000000; stroke-opacity:1; 
stroke-linecap:round; stroke-linejoin:round;">
<text x="216517000.000000" y="105840000.000000"
textLength="2385476.000000" font-size="666666.000000" lengthAdjust="spacingAndGlyphs"
text-anchor="middle" opacity="0">5 mm</text>
<g class="stroked-text"><desc>5 mm</desc>
<path d="M215778904 105316190
L215540809 105316190
L215517000 105554285
L215540809 105530476
L215588428 105506666
L215707476 105506666
L215755095 105530476
L215778904 105554285
L215802714 105601904
L215802714 105720952
L215778904 105768571
L215755095 105792380
L215707476 105816190
L215588428 105816190
L215540809 105792380
L215517000 105768571
" />
<path d="M216397952 105816190
L216397952 105482857
" />
<path d="M216397952 105530476
L216421761 105506666
L216469380 105482857
L216540809 105482857
L216588428 105506666
L216612238 105554285
L216612238 105816190
" />
<path d="M216612238 105554285
L216636047 105506666
L216683666 105482857
L216755095 105482857
L216802714 105506666
L216826523 105554285
L216826523 105816190
" />
<path d="M217064619 105816190
L217064619 105482857
" />
<path d="M217064619 105530476
L217088428 105506666
L217136047 105482857
L217207476 105482857
L217255095 105506666
L217278904 105554285
L217278904 105816190
" />
<path d="M217278904 105554285
L217302714 105506666
L217350333 105482857
L217421761 105482857
L217469380 105506666
L217493190 105554285
L217493190 105816190
" />
</g><g transform="rotate(-90.000000 211817000.000000 109590000.000000)">
<text x="211817000.000000" y="109840000.000000"
textLength="2320476.000000" font-size="666666.000000" lengthAdjust="spacingAndGlyphs"
text-anchor="middle" opacity="0">5 mm</text>
</g>
<g class="stroked-text"><desc>5 mm</desc>
<path d="M211543190 110328095
L211543190 110566190
L211781285 110590000
L211757476 110566190
L211733666 110518571
L211733666 110399523
L211757476 110351904
L211781285 110328095
L211828904 110304285
L211947952 110304285
L211995571 110328095
L212019380 110351904
L212043190 110399523
L212043190 110518571
L212019380 110566190
L211995571 110590000
" />
<path d="M212043190 109709047
L211709857 109709047
" />
<path d="M211757476 109709047
L211733666 109685238
L211709857 109637619
L211709857 109566190
L211733666 109518571
L211781285 109494761
L212043190 109494761
" />
<path d="M211781285 109494761
L211733666 109470952
L211709857 109423333
L211709857 109351904
L211733666 109304285
L211781285 109280476
L212043190 109280476
" />
<path d="M212043190 109042380
L211709857 109042380
" />
<path d="M211757476 109042380
L211733666 109018571
L211709857 108970952
L211709857 108899523
L211733666 108851904
L211781285 108828095
L212043190 108828095
" />
<path d="M211781285 108828095
L211733666 108804285
L211709857 108756666
L211709857 108685238
L211733666 108637619
L211781285 108613809
L212043190 108613809
" />
</g><path d="M213442000 106190000
L213642000 106390000
" />
<path d="M211317000 106990000
L211517000 107190000
" />
<path d="M211317000 111590000
L211117000 111390000
" />
<path d="M213442000 106190000
L213642000 105990000
" />
<path d="M213442000 106190000
L218042000 106190000
" />
<path d="M211317000 88590000
L211117000 88390000
" />
<path d="M211317000 83990000
L211117000 84190000
" />
<path d="M211317000 106990000
L211117000 107190000
" />
<path d="M211317000 83990000
L211517000 84190000
" />
<path d="M211317000 106990000
L211317000 111590000
" />
<path d="M211317000 88590000
L211517000 88390000
" />
<path d="M218042000 106190000
L217842000 106390000
" />
<path d="M211317000 111590000
L211517000 111390000
" />
<path d="M211317000 83990000
L211317000 88590000
" />
<path d="M218042000 106190000
L217842000 105990000
" />
<g >
</g>
<g >
</g>
<g >
</g>
<g >
</g>
<g >
</g>
<g >
</g>
<g >
</g>
<g >
</g>
<g >
</g>
<g >
</g>
<g >
</g>
<g >
</g>
<g >
</g>
<g >
</g>
<g >
</g>
<g >
</g>
<g >
</g>
<g >
</g>
<g >
</g>
<g >
</g>
<g >
</g>
<g >
</g>
<g >
</g>
<g >
</g>
<g >
</g>
<g >
</g>
<g >
</g>
<g >
</g>
<g >
</g>
<g >
</g>
<g >
</g>
<g >
</g>
<g >
</g>
<g >
</g>
<g >
</g>
<g >
</g>
<g >
</g>
<g >
</g>
<g >
</g>
<g >
</g>
<g >
</g>
<g >
</g>
<g >
</g>
<g >
</g>
<g >
</g>
<g >
</g>
<g >
</g>
<g >
</g>
<g >
</g>
<g >
</g>
<g >
</g>
<g >
</g>
<g >
</g>
<g >
</g>
<g >
</g>
<g >
</g>
<g >
</g>
<g >
</g>
<g >
</g>
<g >
</g>
<g >
</g>
<g >
</g>
<g >
</g>
<g >
</g>
<g >
</g>
<g >
</g>
<g >
</g>
<g >
</g>
<g >
</g>
<g >
</g>
<g >
</g>
<g >
</g>
<g >
</g>
<g >
</g>
<g >
</g>
<g >
</g>
<g >
</g>
<g >
</g>
<g >
</g>
<g >
</g>
<g >
</g>
<g >
</g>
<g >
</g>
<g >
</g>
<g >
</g>
<g >
</g>
<g >
</g>
<g >
</g>
<g >
</g>
<g >
</g>
<g >
</g>
<g >
</g>
<g >
</g>
<g >
</g>
<g >
</g>
<g >
</g>
<g >
</g>
<g >
</g>
<g >
</g>
<g >
</g>
<g >
</g>
<g >
</g>
<g >
</g>
<g >
</g>
<g >
</g>
<g >
</g>
<g >
</g>
<g >
</g>
<g >
</g>
<g >
</g>
<g >
</g>
<g >
</g>
<g >
</g>
<g >
</g>
<g >
</g>
<g >
</g>
<g >
</g>
<g >
</g>
<g >
</g>
<g >
</g>
<g >
</g>
<g >
</g>
<g >
</g>
<g >
</g>
<g >
</g>
<g >
</g>
<g >
</g>
<g >
</g>
<g >
</g>
<g >
</g>
<g >
</g>
<g >
</g>
<g >
</g>
<g >
</g>
<g >
</g>
<g >
</g>
<g >
</g>
<g >
</g>
<g >
</g>
<g >
</g>
<g >
</g>
<g >
</g>
<g >
</g>
<g >
</g>
<g >
</g>
<g >
</g>
<g >
</g>
<g >
</g>
<g >
</g>
<g >
</g>
<g >
</g>
<g >
</g>
<g >
</g>
<g >
</g>
<g >
</g>
<g >
</g>
<g >
</g>
<g >
</g>
<g >
</g>
<g >
</g>
<g >
</g>
<g >
</g>
<g >
</g>
<g >
</g>
<g >
</g>
<g >
</g>
<g >
</g>
<g >
</g>
<g >
</g>
<g >
</g>
<g >
</g>
<g >
</g>
<g >
</g>
<g >
</g>
<g >
</g>
<g >
</g>
<g >
</g>
<g >
</g>
<g >
</g>
<g >
</g>
<g >
</g>
<g >
</g>
<g >
</g>
<g >
</g>
<g >
</g>
<g >
</g>
<g >
</g>
<g >
</g>
<g >
</g>
<g >
</g>
<g >
</g>
<g >
</g>
<g >
</g>
<g >
</g>
<g >
</g>
<g >
</g>
<g >
</g>
<g >
</g>
<g >
</g>
<g >
</g>
<g >
</g>
<g >
</g>
<g >
</g>
<g >
</g>
<g >
</g>
<g >
</g>
<g >
</g>
<g >
</g>
<g >
</g>
<g >
</g>
<g >
</g>
<g >
</g>
<g >
</g>
<g >
</g>
<g >
</g>
<g >
</g>
<g >
</g>
<g >
</g>
<g >
</g>
<g >
</g>
<g >
</g>
<g >
</g>
<g >
</g>
<g >
</g>
<g >
</g>
<g >
</g>
<g >
</g>
<g >
</g>
<g >
</g>
<g >
</g>
<g >
</g>
<g >
</g>
<g >
</g>
<g >
</g>
<g >
</g>
<g >
</g>
<g >
</g>
<g >
</g>
<g >
</g>
<g >
</g>
<g >
</g>
<g >
</g>
<g >
</g>
<g >
</g>
<g >
</g>
<g >
</g>
<g >
</g>
<g >
</g>
<g >
</g>
<g >
</g>
<g >
</g>
<g >
</g>
<g >
</g>
<g >
</g>
<g >
</g>
<g >
</g>
<g >
</g>
<g >
</g>
<g >
</g>
<g >
</g>
<g >
</g>
<g >
</g>
<g >
</g>
<g >
</g>
<g >
</g>
<g >
</g>
<g >
</g>
<g >
</g>
<g >
</g>
<g >
</g>
<g >
</g>
<g >
</g>
<g >
</g>
<g >
</g>
<g >
</g>
<g >
</g>
<g >
</g>
<g >
</g>
<g >
</g>
<g >
</g>
<g >
</g>
<g >
</g>
<g >
</g>
<g >
</g>
<g >
</g>
<g >
</g>
<g >
</g>
<g >
</g>
<g >
</g>
<g >
</g>
<g >
</g>
<g >
</g>
<g >
</g>
<g >
</g>
<g >
</g>
<g >
</g>
<g >
</g>
<g >
</g>
<g >
</g>
<g >
</g>
<g >
</g>
<g >
</g>
<g >
</g>
<g >
</g>
<g >
</g>
<g >
</g>
<g >
</g>
<g >
</g>
<g >
</g>
<g >
</g>
<g >
</g>
<g >
</g>
<g >
</g>
<g >
</g>
<g >
</g>
<g >
</g>
<g >
</g>
</g>
<g style="fill:#000000; fill-opacity:0.0; 
stroke:#000000; stroke-width:100000.000000; stroke-opacity:1; 
stroke-linecap:round; stroke-linejoin:round;">
<g >
</g>
<g >
</g>
<g >
</g>
<g >
</g>
<g >
</g>
<g >
</g>
<g >
</g>
<g >
</g>
<g >
</g>
<g >
</g>
<g >
</g>
<g >
</g>
<g >
</g>
<g >
</g>
<g >
</g>
<g >
</g>
<g >
</g>
<g >
</g>
<g >
</g>
<g >
</g>
<g >
</g>
<g >
</g>
<g >
</g>
<g >
</g>
<g >
</g>
<g >
</g>
<g >
</g>
<g >
</g>
<g >
</g>
<g >
</g>
<g >
</g>
<g >
</g>
<g >
</g>
<g >
</g>
<g >
</g>
<g >
</g>
<g >
</g>
<g >
</g>
<g >
</g>
<g >
</g>
<g >
</g>
<g >
</g>
<g >
</g>
<g >
</g>
<g >
</g>
<g >
</g>
<g >
</g>
<g >
</g>
<g >
</g>
<g >
</g>
<g >
</g>
<g >
</g>
<g >
</g>
<g >
</g>
<g >
</g>
<g >
</g>
<g >
</g>
<g >
</g>
<g >
</g>
<g >
</g>
<g >
</g>
<g >
</g>
<g >
</g>
<g >
</g>
<g >
</g>
<g >
</g>
<g >
</g>
<g >
</g>
<g >
</g>
<g >
</g>
<g >
</g>
<g >
</g>
<g >
</g>
<g >
</g>
<g >
</g>
<g >
</g>
<g >
</g>
<g >
</g>
<g >
</g>
<g >
</g>
<g >
</g>
<g >
</g>
<g >
</g>
<g >
</g>
<g >
</g>
<g >
</g>
<g >
</g>
<g >
</g>
<g >
</g>
<g >
</g>
<g >
</g>
<g >
</g>
<g >
</g>
<g >
</g>
<g >
</g>
<g >
</g>
<g >
</g>
<g >
</g>
<g >
</g>
<g >
</g>
<g >
</g>
<g >
</g>
<g >
</g>
<g >
</g>
<g >
</g>
<g >
</g>
<g >
</g>
<g >
</g>
<g >
</g>
<g >
</g>
<g >
</g>
<g >
</g>
<g >
</g>
<g >
</g>
<g >
</g>
<g >
</g>
<g >
</g>
<g >
</g>
<g >
</g>
<g >
</g>
<g >
</g>
<g >
</g>
<g >
</g>
<g >
</g>
<g >
</g>
<g >
</g>
<g >
</g>
<g >
</g>
<g >
</g>
<g >
</g>
<g >
</g>
<g >
</g>
<g >
</g>
<g >
</g>
<g >
</g>
<g >
</g>
<g >
</g>
<g >
</g>
<g >
</g>
<g >
</g>
<g >
</g>
<g >
</g>
<g >
</g>
<g >
</g>
<g >
</g>
<g >
</g>
<g >
</g>
<g >
</g>
<g >
</g>
<g >
</g>
<g >
</g>
<g >
</g>
<g >
</g>
<g >
</g>
<g >
</g>
<g >
</g>
<g >
</g>
<g >
</g>
<g >
</g>
<g >
</g>
<g >
</g>
<g >
</g>
<g >
</g>
<g >
</g>
<g >
</g>
<g >
</g>
<g >
</g>
<g >
</g>
<g >
</g>
<g >
</g>
<g >
</g>
<g >
</g>
<g >
</g>
<g >
</g>
<g >
</g>
<g >
</g>
<g >
</g>
<g >
</g>
<g >
</g>
<g >
</g>
<g >
</g>
<g >
</g>
<g >
</g>
<g >
</g>
<g >
</g>
<g >
</g>
<g >
</g>
<g >
</g>
<g >
</g>
<g >
</g>
<g >
</g>
<g >
</g>
<g >
</g>
<g >
</g>
<g >
</g>
<g >
</g>
<g >
</g>
<g >
</g>
<g >
</g>
<g >
</g>
<g >
</g>
<g >
</g>
<g >
</g>
<g >
</g>
<g >
</g>
<g >
</g>
<g >
</g>
<g >
</g>
<g >
</g>
<g >
</g>
<g >
</g>
<g >
</g>
<g >
</g>
<g >
</g>
<g >
</g>
<g >
</g>
<g >
</g>
<g >
</g>
<g >
</g>
<g >
</g>
<g >
</g>
<g >
</g>
<g >
</g>
<g >
</g>
<g >
</g>
<g >
</g>
<g >
</g>
<g >
</g>
<g >
</g>
<g >
</g>
<g >
</g>
<g >
</g>
<g >
</g>
<g >
</g>
<g >
</g>
<g >
</g>
<g >
</g>
<g >
</g>
<g >
</g>
<g >
</g>
<g >
</g>
<g >
</g>
<g >
</g>
<g >
</g>
<g >
</g>
<g >
</g>
<g >
</g>
<g >
</g>
<g >
</g>
<g >
</g>
<g >
</g>
<g >
</g>
<g >
</g>
<g >
</g>
<g >
</g>
<g >
</g>
<g >
</g>
<g >
</g>
<g >
</g>
<g >
</g>
<g >
</g>
<g >
</g>
<g >
</g>
<g >
</g>
<g >
</g>
<g >
</g>
<g >
</g>
<g >
</g>
<g >
</g>
<g >
</g>
<g >
</g>
<g >
</g>
<g >
</g>
<g >
</g>
<g >
</g>
<g >
</g>
<g >
</g>
<g >
</g>
<g >
</g>
<g >
</g>
<g >
</g>
<g >
</g>
<g >
</g>
<g >
</g>
<g >
</g>
<g >
</g>
<g >
</g>
<g >
</g>
<g >
</g>
<g >
</g>
<g >
</g>
<g >
</g>
<g >
</g>
<g >
</g>
<g >
</g>
<g >
</g>
<g >
</g>
<g >
</g>
<g >
</g>
<g >
</g>
<g >
</g>
<g >
</g>
<g >
</g>
<g >
</g>
<g >
</g>
<g >
</g>
<g >
</g>
<g >
</g>
<g >
</g>
<g >
</g>
<g >
</g>
<g >
</g>
<g >
</g>
<g >
</g>
<g >
</g>
<g >
</g>
<g >
</g>
</g> 
</svg>
